<svg width="95" height="35" viewBox="0 0 95 35" fill="none" xmlns="http://www.w3.org/2000/svg">
<path d="M7.63185 15.1975C7.63185 13.8125 7.8952 12.5055 8.4219 11.2765C8.9486 10.0476 9.67038 8.97465 10.5872 8.0578C11.5041 7.14095 12.577 6.41918 13.8059 5.89248C15.0349 5.36578 16.3419 5.10243 17.7269 5.10243C19.1315 5.10243 20.4385 5.36578 21.6479 5.89248C22.8769 6.41918 23.9498 7.14095 24.8667 8.0578C25.7835 8.97465 26.5053 10.0476 27.032 11.2765C27.5587 12.5055 27.822 13.8125 27.822 15.1975C27.822 16.6021 27.5587 17.9188 27.032 19.1478C26.5053 20.3572 25.7835 21.4204 24.8667 22.3372C23.9498 23.2541 22.8769 23.9759 21.6479 24.5026C20.4385 25.0293 19.1315 25.2926 17.7269 25.2926C16.3419 25.2926 15.0349 25.0293 13.8059 24.5026C12.577 23.9759 11.5041 23.2541 10.5872 22.3372C9.67038 21.4204 8.9486 20.3572 8.4219 19.1478C7.8952 17.9188 7.63185 16.6021 7.63185 15.1975ZM10.2654 15.1975C10.2654 16.2314 10.4604 17.2165 10.8506 18.1529C11.2407 19.0697 11.7772 19.8793 12.4599 20.5816C13.1427 21.2643 13.9327 21.8105 14.8301 22.2202C15.7469 22.6103 16.7126 22.8054 17.7269 22.8054C18.7608 22.8054 19.7265 22.6103 20.6238 22.2202C21.5211 21.8105 22.3112 21.2643 22.9939 20.5816C23.6767 19.8793 24.2132 19.0697 24.6033 18.1529C24.9935 17.2165 25.1885 16.2314 25.1885 15.1975C25.1885 14.1636 24.9935 13.1883 24.6033 12.2714C24.2132 11.335 23.6767 10.5255 22.9939 9.84273C22.3112 9.14046 21.5211 8.59426 20.6238 8.20411C19.7265 7.79445 18.7608 7.58962 17.7269 7.58962C16.7126 7.58962 15.7469 7.79445 14.8301 8.20411C13.9327 8.59426 13.1427 9.14046 12.4599 9.84273C11.7772 10.5255 11.2407 11.335 10.8506 12.2714C10.4604 13.1883 10.2654 14.1636 10.2654 15.1975ZM30.4567 17.5384C30.4567 16.446 30.642 15.4316 31.0126 14.4953C31.4028 13.5394 31.9295 12.7103 32.5927 12.0081C33.256 11.3058 34.046 10.7498 34.9629 10.3402C35.8797 9.93051 36.8746 9.72569 37.9475 9.72569C39.2935 9.72569 40.4055 9.96953 41.2833 10.4572C42.1611 10.9254 42.8732 11.5691 43.4194 12.3885V3.93198H45.7603V25H43.4194V22.6298C42.8732 23.4492 42.1611 24.0929 41.2833 24.5611C40.4055 25.0293 39.2935 25.2634 37.9475 25.2634C36.8746 25.2634 35.8797 25.0585 34.9629 24.6489C34.046 24.2392 33.256 23.6832 32.5927 22.981C31.9295 22.2787 31.4028 21.4594 31.0126 20.523C30.642 19.5867 30.4567 18.5918 30.4567 17.5384ZM43.4194 16.368C43.3023 15.7242 43.0877 15.139 42.7756 14.6123C42.483 14.0661 42.1124 13.6077 41.6637 13.237C41.215 12.8469 40.6981 12.5543 40.1129 12.3592C39.5276 12.1446 38.9034 12.0373 38.2401 12.0373C37.4208 12.0373 36.6795 12.1934 36.0163 12.5055C35.353 12.7981 34.7971 13.198 34.3484 13.7052C33.8997 14.2124 33.5486 14.7976 33.295 15.4609C33.0609 16.1241 32.9439 16.8166 32.9439 17.5384C32.9439 18.2407 33.0609 18.9234 33.295 19.5867C33.5486 20.2304 33.8997 20.8059 34.3484 21.3131C34.7971 21.8008 35.353 22.2007 36.0163 22.5128C36.6795 22.8054 37.4208 22.9517 38.2401 22.9517C38.9424 22.9517 39.5862 22.8444 40.1714 22.6298C40.7566 22.3958 41.2735 22.0934 41.7222 21.7228C42.1709 21.3326 42.5415 20.8839 42.8341 20.3767C43.1267 19.8695 43.3218 19.3233 43.4194 18.7381V16.368ZM51.7464 18.1822C51.8245 18.8454 52 19.4794 52.2731 20.0841C52.5658 20.6694 52.9364 21.1765 53.3851 21.6057C53.8337 22.0349 54.3702 22.3763 54.9944 22.6298C55.6187 22.8834 56.3014 23.0102 57.0427 23.0102C58.0571 23.0102 58.9154 22.8054 59.6177 22.3958C60.32 21.9666 60.8467 21.4399 61.1978 20.8157H64.0361C63.5874 22.1422 62.7486 23.2151 61.5197 24.0344C60.3102 24.8537 58.8179 25.2634 57.0427 25.2634C55.9698 25.2634 54.9554 25.0585 53.9995 24.6489C53.0632 24.2392 52.2439 23.6832 51.5416 22.981C50.8393 22.2787 50.2834 21.4594 49.8737 20.523C49.4641 19.5867 49.2592 18.5821 49.2592 17.5091C49.2592 16.4167 49.4543 15.4023 49.8445 14.466C50.2346 13.5101 50.7711 12.6811 51.4538 11.9788C52.1366 11.2765 52.9364 10.7303 53.8532 10.3402C54.7896 9.93051 55.7942 9.72569 56.8671 9.72569C57.9205 9.72569 58.8959 9.88175 59.7933 10.1939C60.6906 10.506 61.4709 10.9449 62.1341 11.5106C62.8169 12.0763 63.3631 12.7591 63.7728 13.5589C64.2019 14.3392 64.4555 15.217 64.5336 16.1924C64.5726 16.5045 64.5921 16.7874 64.5921 17.041C64.5921 17.0995 64.5823 17.2263 64.5628 17.4214C64.5628 17.5969 64.5531 17.8505 64.5336 18.1822H51.7464ZM61.8708 16.1924C61.8123 15.5487 61.6465 14.9732 61.3734 14.466C61.1198 13.9393 60.7686 13.4906 60.32 13.12C59.8908 12.7493 59.3836 12.4665 58.7984 12.2714C58.2132 12.0763 57.5694 11.9788 56.8671 11.9788C56.1844 11.9788 55.5601 12.0861 54.9944 12.3007C54.4287 12.5152 53.9313 12.8176 53.5021 13.2078C53.0729 13.5784 52.7121 14.0173 52.4194 14.5245C52.1463 15.0317 51.9513 15.5877 51.8342 16.1924H61.8708ZM68.0321 10.0183H70.373V13.3248C70.9777 12.1153 71.797 11.218 72.8309 10.6328C73.8648 10.0281 74.9865 9.72569 76.1959 9.72569V12.2714C75.5522 12.2714 74.8792 12.3982 74.1769 12.6518C73.4942 12.8859 72.8699 13.237 72.3042 13.7052C71.7385 14.1734 71.2703 14.7586 70.8997 15.4609C70.5485 16.1436 70.373 16.9434 70.373 17.8603V25H68.0321V10.0183ZM78.2346 17.5091C78.2346 16.4167 78.4395 15.4023 78.8491 14.466C79.2588 13.5101 79.8147 12.6811 80.517 11.9788C81.2193 11.2765 82.0386 10.7303 82.9749 10.3402C83.9308 9.93051 84.9452 9.72569 86.0181 9.72569C87.091 9.72569 88.0956 9.93051 89.032 10.3402C89.9878 10.7303 90.8169 11.2765 91.5192 11.9788C92.2214 12.6811 92.7774 13.5101 93.1871 14.466C93.5967 15.4023 93.8015 16.4167 93.8015 17.5091C93.8015 18.5821 93.5967 19.5867 93.1871 20.523C92.7774 21.4594 92.2214 22.2787 91.5192 22.981C90.8169 23.6832 89.9878 24.2392 89.032 24.6489C88.0956 25.0585 87.091 25.2634 86.0181 25.2634C84.9452 25.2634 83.9308 25.0585 82.9749 24.6489C82.0386 24.2392 81.2193 23.6832 80.517 22.981C79.8147 22.2787 79.2588 21.4594 78.8491 20.523C78.4395 19.5867 78.2346 18.5821 78.2346 17.5091ZM80.7511 17.5091C80.7511 18.2114 80.8681 18.8942 81.1022 19.5574C81.3558 20.2012 81.7069 20.7766 82.1556 21.2838C82.6238 21.791 83.1798 22.2007 83.8235 22.5128C84.4868 22.8054 85.2183 22.9517 86.0181 22.9517C86.8179 22.9517 87.5397 22.8054 88.1834 22.5128C88.8467 22.2007 89.4026 21.791 89.8513 21.2838C90.3 20.7766 90.6413 20.2012 90.8754 19.5574C91.129 18.8942 91.2558 18.2114 91.2558 17.5091C91.2558 16.8069 91.129 16.1241 90.8754 15.4609C90.6413 14.7976 90.3 14.2124 89.8513 13.7052C89.4026 13.198 88.8467 12.7981 88.1834 12.5055C87.5397 12.1934 86.8179 12.0373 86.0181 12.0373C85.2183 12.0373 84.4868 12.1934 83.8235 12.5055C83.1798 12.7981 82.6238 13.198 82.1556 13.7052C81.7069 14.2124 81.3558 14.7976 81.1022 15.4609C80.8681 16.1241 80.7511 16.8069 80.7511 17.5091Z" fill="black"/>
<path d="M8.4219 11.2765L8.7054 11.398L8.4219 11.2765ZM10.5872 8.0578L10.3691 7.8397L10.3691 7.8397L10.5872 8.0578ZM13.8059 5.89248L13.6844 5.60897L13.8059 5.89248ZM21.6479 5.89248L21.5248 6.17527L21.5264 6.17598L21.6479 5.89248ZM24.8667 8.0578L25.0848 7.8397V7.8397L24.8667 8.0578ZM27.032 11.2765L27.3155 11.155L27.032 11.2765ZM27.032 19.1478L27.3148 19.2709L27.3155 19.2693L27.032 19.1478ZM24.8667 22.3372L25.0848 22.5553L24.8667 22.3372ZM21.6479 24.5026L21.5264 24.2191L21.5248 24.2198L21.6479 24.5026ZM13.8059 24.5026L13.6844 24.7861L13.8059 24.5026ZM10.5872 22.3372L10.3691 22.5553L10.5872 22.3372ZM8.4219 19.1478L8.13839 19.2693L8.13911 19.2709L8.4219 19.1478ZM10.8506 18.1529L10.5659 18.2715L10.5668 18.2737L10.8506 18.1529ZM12.4599 20.5816L12.2388 20.7966L12.2418 20.7997L12.4599 20.5816ZM14.8301 22.2202L14.702 22.5009L14.7093 22.504L14.8301 22.2202ZM20.6238 22.2202L20.7468 22.5031L20.7519 22.5008L20.6238 22.2202ZM22.9939 20.5816L23.2121 20.7997L23.2151 20.7966L22.9939 20.5816ZM24.6033 18.1529L24.8871 18.2737L24.888 18.2715L24.6033 18.1529ZM24.6033 12.2714L24.3186 12.39L24.3195 12.3922L24.6033 12.2714ZM22.9939 9.84273L22.7728 10.0578L22.7758 10.0608L22.9939 9.84273ZM20.6238 8.20411L20.4957 8.48474L20.5008 8.48697L20.6238 8.20411ZM14.8301 8.20411L14.9531 8.48699L14.9559 8.48572L14.8301 8.20411ZM12.4599 9.84273L12.6781 10.0609L12.6811 10.0577L12.4599 9.84273ZM10.8506 12.2714L11.1344 12.3922L11.1353 12.39L10.8506 12.2714ZM7.94029 15.1975C7.94029 13.8527 8.19575 12.5872 8.7054 11.398L8.1384 11.155C7.59465 12.4238 7.32341 13.7723 7.32341 15.1975H7.94029ZM8.7054 11.398C9.21714 10.204 9.91709 9.16414 10.8053 8.2759L10.3691 7.8397C9.42366 8.78517 8.68006 9.89114 8.1384 11.155L8.7054 11.398ZM10.8053 8.2759C11.6936 7.38767 12.7334 6.68771 13.9275 6.17598L13.6844 5.60897C12.4206 6.15064 11.3146 6.89424 10.3691 7.8397L10.8053 8.2759ZM13.9275 6.17598C15.1166 5.66633 16.3822 5.41087 17.7269 5.41087V4.79399C16.3017 4.79399 14.9532 5.06523 13.6844 5.60897L13.9275 6.17598ZM17.7269 5.41087C19.0919 5.41087 20.3567 5.66656 21.5248 6.17527L21.7711 5.60969C20.5203 5.06499 19.1711 4.79399 17.7269 4.79399V5.41087ZM21.5264 6.17598C22.7205 6.68771 23.7603 7.38767 24.6486 8.2759L25.0848 7.8397C24.1393 6.89424 23.0333 6.15064 21.7694 5.60897L21.5264 6.17598ZM24.6486 8.2759C25.5368 9.16414 26.2367 10.204 26.7485 11.398L27.3155 11.155C26.7738 9.89114 26.0302 8.78517 25.0848 7.8397L24.6486 8.2759ZM26.7485 11.398C27.2581 12.5872 27.5136 13.8527 27.5136 15.1975H28.1305C28.1305 13.7723 27.8592 12.4238 27.3155 11.155L26.7485 11.398ZM27.5136 15.1975C27.5136 16.5624 27.2579 17.8376 26.7485 19.0263L27.3155 19.2693C27.8595 18 28.1305 16.6417 28.1305 15.1975H27.5136ZM26.7492 19.0246C26.2376 20.1993 25.5376 21.2301 24.6486 22.1191L25.0848 22.5553C26.0294 21.6107 26.7729 20.5152 27.3148 19.2709L26.7492 19.0246ZM24.6486 22.1191C23.7603 23.0074 22.7205 23.7073 21.5264 24.2191L21.7694 24.7861C23.0333 24.2444 24.1393 23.5008 25.0848 22.5553L24.6486 22.1191ZM21.5248 24.2198C20.3567 24.7285 19.0919 24.9842 17.7269 24.9842V25.6011C19.1711 25.6011 20.5203 25.33 21.7711 24.7854L21.5248 24.2198ZM17.7269 24.9842C16.3822 24.9842 15.1166 24.7287 13.9275 24.2191L13.6844 24.7861C14.9532 25.3298 16.3017 25.6011 17.7269 25.6011V24.9842ZM13.9275 24.2191C12.7334 23.7073 11.6936 23.0074 10.8053 22.1191L10.3691 22.5553C11.3146 23.5008 12.4206 24.2444 13.6844 24.7861L13.9275 24.2191ZM10.8053 22.1191C9.91628 21.2301 9.21624 20.1993 8.70469 19.0246L8.13911 19.2709C8.68096 20.5152 9.42447 21.6107 10.3691 22.5553L10.8053 22.1191ZM8.7054 19.0263C8.19598 17.8376 7.94029 16.5624 7.94029 15.1975H7.32341C7.32341 16.6417 7.59442 18 8.1384 19.2693L8.7054 19.0263ZM9.95691 15.1975C9.95691 16.2713 10.1597 17.2968 10.5659 18.2715L11.1353 18.0343C10.7611 17.1362 10.5738 16.1915 10.5738 15.1975H9.95691ZM10.5668 18.2737C10.9715 19.2249 11.529 20.0666 12.2388 20.7966L12.6811 20.3666C12.0253 19.692 11.5099 18.9146 11.1344 18.0321L10.5668 18.2737ZM12.2418 20.7997C12.9512 21.509 13.7719 22.0762 14.702 22.5008L14.9582 21.9396C14.0936 21.5449 13.3342 21.0196 12.678 20.3635L12.2418 20.7997ZM14.7093 22.504C15.6651 22.9107 16.6718 23.1139 17.7269 23.1139V22.497C16.7533 22.497 15.8288 22.31 14.9509 21.9364L14.7093 22.504ZM17.7269 23.1139C18.8007 23.1139 19.8085 22.911 20.7468 22.5031L20.5008 21.9373C19.6445 22.3097 18.721 22.497 17.7269 22.497V23.1139ZM20.7519 22.5008C21.682 22.0762 22.5027 21.509 23.212 20.7997L22.7758 20.3635C22.1197 21.0196 21.3603 21.5449 20.4957 21.9396L20.7519 22.5008ZM23.2151 20.7966C23.9248 20.0666 24.4823 19.2249 24.8871 18.2737L24.3195 18.0321C23.944 18.9146 23.4286 19.692 22.7728 20.3666L23.2151 20.7966ZM24.888 18.2715C25.2941 17.2968 25.497 16.2713 25.497 15.1975H24.8801C24.8801 16.1915 24.6928 17.1362 24.3186 18.0343L24.888 18.2715ZM25.497 15.1975C25.497 14.1237 25.2941 13.1071 24.8871 12.1506L24.3195 12.3922C24.6928 13.2694 24.8801 14.2035 24.8801 15.1975H25.497ZM24.888 12.1528C24.4832 11.1811 23.9247 10.3373 23.212 9.62463L22.7758 10.0608C23.4287 10.7137 23.9431 11.489 24.3186 12.39L24.888 12.1528ZM23.2151 9.62772C22.5044 8.89669 21.681 8.32742 20.7468 7.92125L20.5008 8.48697C21.3613 8.86109 22.118 9.38424 22.7728 10.0577L23.2151 9.62772ZM20.7519 7.92352C19.8124 7.49463 18.8029 7.28118 17.7269 7.28118V7.89807C18.7188 7.89807 19.6405 8.09428 20.4957 8.48469L20.7519 7.92352ZM17.7269 7.28118C16.6696 7.28118 15.6611 7.49497 14.7043 7.9225L14.9559 8.48572C15.8328 8.09394 16.7555 7.89807 17.7269 7.89807V7.28118ZM14.7071 7.92125C13.7729 8.32742 12.9495 8.89669 12.2388 9.62772L12.6811 10.0577C13.3359 9.38424 14.0926 8.86109 14.9531 8.48697L14.7071 7.92125ZM12.2418 9.62463C11.5292 10.3373 10.9707 11.1811 10.5659 12.1528L11.1353 12.39C11.5107 11.489 12.0252 10.7137 12.678 10.0608L12.2418 9.62463ZM10.5668 12.1506C10.1597 13.1071 9.95691 14.1237 9.95691 15.1975H10.5738C10.5738 14.2035 10.7611 13.2694 11.1344 12.3922L10.5668 12.1506ZM31.0126 14.4953L30.7271 14.3787L30.7258 14.3817L31.0126 14.4953ZM32.5927 12.0081L32.3685 11.7963L32.5927 12.0081ZM34.9629 10.3402L34.8371 10.0586L34.9629 10.3402ZM41.2833 10.4572L41.1335 10.7269L41.1381 10.7294L41.2833 10.4572ZM43.4194 12.3884L43.1627 12.5595L43.7278 13.4072V12.3884H43.4194ZM43.4194 3.93198V3.62354H43.1109V3.93198H43.4194ZM45.7603 3.93198H46.0687V3.62354H45.7603V3.93198ZM45.7603 25V25.3084H46.0687V25H45.7603ZM43.4194 25H43.1109V25.3084H43.4194V25ZM43.4194 22.6298H43.7278V21.6111L43.1627 22.4588L43.4194 22.6298ZM41.2833 24.5611L41.4284 24.8332L41.2833 24.5611ZM34.9629 24.6489L35.0887 24.3673L34.9629 24.6489ZM32.5927 22.981L32.817 22.7692L32.5927 22.981ZM31.0126 20.523L30.7258 20.6366L30.7279 20.6417L31.0126 20.523ZM43.4194 16.368H43.7278V16.3402L43.7228 16.3128L43.4194 16.368ZM42.7756 14.6123L42.5035 14.7581L42.5103 14.7695L42.7756 14.6123ZM41.6637 13.237L41.4612 13.4698L41.4673 13.4748L41.6637 13.237ZM40.1129 12.3592L40.0066 12.6489L40.0153 12.6518L40.1129 12.3592ZM36.0163 12.5055L36.1408 12.7878L36.1476 12.7846L36.0163 12.5055ZM34.3484 13.7052L34.5794 13.9096L34.3484 13.7052ZM33.295 15.4609L33.0068 15.3507L33.0042 15.3582L33.295 15.4609ZM33.295 19.5867L33.004 19.6894L33.008 19.6997L33.295 19.5867ZM34.3484 21.3131L34.1173 21.5175L34.1214 21.5219L34.3484 21.3131ZM36.0163 22.5128L35.8849 22.792L35.8918 22.795L36.0163 22.5128ZM40.1714 22.6298L40.2776 22.9196L40.2859 22.9162L40.1714 22.6298ZM41.7222 21.7228L41.9187 21.9606L41.9246 21.9555L41.7222 21.7228ZM42.8341 20.3767L43.1013 20.5309L42.8341 20.3767ZM43.4194 18.7381L43.7236 18.7888L43.7278 18.7636V18.7381H43.4194ZM30.7651 17.5384C30.7651 16.4815 30.9443 15.506 31.2994 14.6088L30.7258 14.3817C30.3397 15.3572 30.1482 16.4104 30.1482 17.5384H30.7651ZM31.2982 14.6118C31.675 13.6888 32.1816 12.8926 32.817 12.2198L32.3685 11.7963C31.6773 12.5281 31.1306 13.39 30.7271 14.3787L31.2982 14.6118ZM32.817 12.2198C33.4512 11.5483 34.2075 11.0155 35.0887 10.6218L34.8371 10.0586C33.8846 10.4841 33.0607 11.0633 32.3685 11.7963L32.817 12.2198ZM35.0887 10.6218C35.9633 10.231 36.915 10.0341 37.9475 10.0341V9.41725C36.8343 9.41725 35.7962 9.63003 34.8371 10.0586L35.0887 10.6218ZM37.9475 10.0341C39.2583 10.0341 40.3145 10.2718 41.1335 10.7268L41.4331 10.1876C40.4965 9.66724 39.3288 9.41725 37.9475 9.41725V10.0341ZM41.1381 10.7294C41.9715 11.1738 42.6451 11.7831 43.1627 12.5595L43.676 12.2174C43.1012 11.3552 42.3507 10.6769 41.4284 10.1851L41.1381 10.7294ZM43.7278 12.3884V3.93198H43.1109V12.3884H43.7278ZM43.4194 4.24042H45.7603V3.62354H43.4194V4.24042ZM45.4518 3.93198V25H46.0687V3.93198H45.4518ZM45.7603 24.6916H43.4194V25.3084H45.7603V24.6916ZM43.7278 25V22.6298H43.1109V25H43.7278ZM43.1627 22.4588C42.6451 23.2352 41.9715 23.8445 41.1381 24.2889L41.4284 24.8332C42.3507 24.3414 43.1012 23.6631 43.676 22.8009L43.1627 22.4588ZM41.1381 24.2889C40.318 24.7264 39.26 24.9549 37.9475 24.9549V25.5718C39.3271 25.5718 40.493 25.3322 41.4284 24.8332L41.1381 24.2889ZM37.9475 24.9549C36.915 24.9549 35.9633 24.758 35.0887 24.3673L34.8371 24.9305C35.7962 25.359 36.8343 25.5718 37.9475 25.5718V24.9549ZM35.0887 24.3673C34.2075 23.9735 33.4512 23.4408 32.817 22.7692L32.3685 23.1928C33.0607 23.9257 33.8846 24.5049 34.8371 24.9305L35.0887 24.3673ZM32.817 22.7692C32.1806 22.0954 31.6739 21.3081 31.2974 20.4044L30.7279 20.6417C31.1317 21.6107 31.6784 22.462 32.3685 23.1928L32.817 22.7692ZM31.2994 20.4095C30.9437 19.511 30.7651 18.5548 30.7651 17.5384H30.1482C30.1482 18.6289 30.3402 19.6624 30.7258 20.6366L31.2994 20.4095ZM43.7228 16.3128C43.5997 15.6355 43.373 15.0154 43.041 14.4551L42.5103 14.7695C42.8025 15.2626 43.0049 15.8129 43.1159 16.4231L43.7228 16.3128ZM43.0475 14.4666C42.7372 13.8874 42.3417 13.397 41.8601 12.9992L41.4673 13.4748C41.8831 13.8183 42.2288 14.2448 42.5037 14.7579L43.0475 14.4666ZM41.8661 13.0043C41.3856 12.5865 40.8327 12.274 40.2104 12.0666L40.0153 12.6518C40.5635 12.8345 41.0444 13.1073 41.4613 13.4698L41.8661 13.0043ZM40.219 12.0696C39.5977 11.8418 38.9373 11.7289 38.2401 11.7289V12.3458C38.8695 12.3458 39.4576 12.4474 40.0067 12.6488L40.219 12.0696ZM38.2401 11.7289C37.3808 11.7289 36.5939 11.8928 35.885 12.2264L36.1476 12.7846C36.7652 12.494 37.4609 12.3458 38.2401 12.3458V11.7289ZM35.8918 12.2233C35.1908 12.5326 34.5976 12.958 34.1174 13.5008L34.5794 13.9096C34.9966 13.438 35.5153 13.0636 36.1408 12.7877L35.8918 12.2233ZM34.1174 13.5008C33.643 14.0371 33.2731 14.6546 33.0069 15.3507L33.5831 15.571C33.8241 14.9406 34.1565 14.3877 34.5794 13.9096L34.1174 13.5008ZM33.0042 15.3582C32.7581 16.0553 32.6354 16.7826 32.6354 17.5384H33.2523C33.2523 16.8507 33.3637 16.1929 33.5859 15.5635L33.0042 15.3582ZM32.6354 17.5384C32.6354 18.2757 32.7584 18.9932 33.0042 19.6893L33.5859 19.484C33.3634 18.8537 33.2523 18.2057 33.2523 17.5384H32.6354ZM33.008 19.6997C33.2745 20.3762 33.6444 20.9827 34.1174 21.5175L34.5794 21.1087C34.1551 20.6291 33.8227 20.0847 33.582 19.4736L33.008 19.6997ZM34.1214 21.5219C34.5999 22.042 35.1894 22.4646 35.885 22.7919L36.1476 22.2337C35.5167 21.9368 34.9943 21.5596 34.5754 21.1043L34.1214 21.5219ZM35.8918 22.795C36.5991 23.107 37.3835 23.2602 38.2401 23.2602V22.6433C37.4581 22.6433 36.76 22.5038 36.1408 22.2306L35.8918 22.795ZM38.2401 23.2602C38.9741 23.2602 39.6543 23.148 40.2776 22.9194L40.0652 22.3403C39.518 22.5409 38.9107 22.6433 38.2401 22.6433V23.2602ZM40.2859 22.9162C40.8983 22.6713 41.4434 22.3531 41.9187 21.9606L41.5258 21.485C41.1037 21.8336 40.6149 22.1203 40.0568 22.3435L40.2859 22.9162ZM41.9246 21.9555C42.3987 21.5433 42.7913 21.0681 43.1013 20.5309L42.567 20.2226C42.2917 20.6997 41.9431 21.1219 41.5198 21.49L41.9246 21.9555ZM43.1013 20.5309C43.4126 19.9913 43.6201 19.41 43.7236 18.7888L43.1151 18.6874C43.0236 19.2367 42.8409 19.7478 42.567 20.2226L43.1013 20.5309ZM43.7278 18.7381V16.368H43.1109V18.7381H43.7278ZM51.7464 18.1822V17.8737H51.3996L51.4401 18.2182L51.7464 18.1822ZM52.2731 20.0841L51.9918 20.2112L51.9973 20.2221L52.2731 20.0841ZM53.3851 21.6057L53.1719 21.8286L53.3851 21.6057ZM54.9944 22.6298L54.8783 22.9156L54.9944 22.6298ZM59.6177 22.3958L59.7731 22.6622L59.7785 22.6589L59.6177 22.3958ZM61.1978 20.8157V20.5072H61.0174L60.929 20.6644L61.1978 20.8157ZM64.0361 20.8157L64.3283 20.9145L64.466 20.5072H64.0361V20.8157ZM61.5197 24.0344L61.3486 23.7777L61.3467 23.779L61.5197 24.0344ZM53.9995 24.6489L53.8759 24.9315L53.878 24.9324L53.9995 24.6489ZM51.5416 22.981L51.7597 22.7629L51.5416 22.981ZM49.8737 20.523L50.1563 20.3994L49.8737 20.523ZM49.8445 14.466L50.1292 14.5846L50.13 14.5826L49.8445 14.466ZM51.4538 11.9788L51.2327 11.7638L51.4538 11.9788ZM53.8532 10.3402L53.974 10.624L53.9769 10.6228L53.8532 10.3402ZM59.7933 10.1939L59.8946 9.90254L59.7933 10.1939ZM62.1341 11.5106L61.934 11.7453L61.9374 11.7481L62.1341 11.5106ZM63.7728 13.5589L63.4981 13.6996L63.5025 13.7075L63.7728 13.5589ZM64.5336 16.1924L64.2258 16.217L64.2275 16.2307L64.5336 16.1924ZM64.5628 17.4214L64.2559 17.3907L64.2544 17.406V17.4214H64.5628ZM64.5336 18.1822V18.4906H64.8244L64.8415 18.2003L64.5336 18.1822ZM61.8708 16.1924V16.5008H62.2085L62.178 16.1645L61.8708 16.1924ZM61.3734 14.466L61.0952 14.5999L61.1018 14.6122L61.3734 14.466ZM60.32 13.12L60.1183 13.3535L60.1235 13.3578L60.32 13.12ZM58.7984 12.2714L58.8959 11.9788L58.7984 12.2714ZM53.5021 13.2078L53.7038 13.4413L53.7096 13.436L53.5021 13.2078ZM52.4194 14.5245L52.1522 14.3703L52.1479 14.3783L52.4194 14.5245ZM51.8342 16.1924L51.5314 16.1338L51.4604 16.5008H51.8342V16.1924ZM51.4401 18.2182C51.5218 18.9127 51.7058 19.5773 51.992 20.2111L52.5542 19.9572C52.2942 19.3815 52.1271 18.7782 52.0528 18.1461L51.4401 18.2182ZM51.9973 20.2221C52.3049 20.8373 52.6962 21.3736 53.1719 21.8286L53.5983 21.3828C53.1766 20.9795 52.8266 20.5014 52.549 19.9462L51.9973 20.2221ZM53.1719 21.8286C53.651 22.2869 54.2211 22.6486 54.8783 22.9156L55.1105 22.3441C54.5192 22.1039 54.0165 21.7829 53.5983 21.3828L53.1719 21.8286ZM54.8783 22.9156C55.543 23.1856 56.2656 23.3187 57.0427 23.3187V22.7018C56.3372 22.7018 55.6944 22.5813 55.1105 22.3441L54.8783 22.9156ZM57.0427 23.3187C58.0983 23.3187 59.0133 23.1054 59.7731 22.6622L59.4623 22.1293C58.8175 22.5054 58.0159 22.7018 57.0427 22.7018V23.3187ZM59.7785 22.6589C60.519 22.2064 61.086 21.6435 61.4666 20.9669L60.929 20.6644C60.6073 21.2363 60.1209 21.7267 59.4568 22.1326L59.7785 22.6589ZM61.1978 21.1241H64.0361V20.5072H61.1978V21.1241ZM63.7439 20.7168C63.3183 21.9751 62.5242 22.994 61.3486 23.7777L61.6908 24.291C62.9731 23.4361 63.8566 22.3092 64.3283 20.9145L63.7439 20.7168ZM61.3467 23.779C60.1984 24.5569 58.7696 24.9549 57.0427 24.9549V25.5718C58.8661 25.5718 60.422 25.1505 61.6926 24.2897L61.3467 23.779ZM57.0427 24.9549C56.0102 24.9549 55.0373 24.758 54.121 24.3654L53.878 24.9324C54.8735 25.359 55.9294 25.5718 57.0427 25.5718V24.9549ZM54.1232 24.3663C53.221 23.9716 52.434 23.4372 51.7597 22.7629L51.3235 23.1991C52.0538 23.9293 52.9054 24.5068 53.8759 24.9314L54.1232 24.3663ZM51.7597 22.7629C51.0854 22.0886 50.551 21.3016 50.1563 20.3994L49.5911 20.6467C50.0158 21.6172 50.5933 22.4688 51.3235 23.1991L51.7597 22.7629ZM50.1563 20.3994C49.7646 19.504 49.5677 18.5417 49.5677 17.5091H48.9508C48.9508 18.6224 49.1636 19.6694 49.5911 20.6467L50.1563 20.3994ZM49.5677 17.5091C49.5677 16.4543 49.7559 15.4806 50.1292 14.5846L49.5597 14.3474C49.1528 15.3241 48.9508 16.3792 48.9508 17.5091H49.5677ZM50.13 14.5826C50.506 13.6613 51.0213 12.8662 51.675 12.1938L51.2327 11.7638C50.5209 12.4959 49.9632 13.3589 49.5589 14.3494L50.13 14.5826ZM51.675 12.1938C52.3287 11.5214 53.0942 10.9984 53.974 10.624L53.7325 10.0564C52.7786 10.4623 51.9445 11.0316 51.2327 11.7638L51.675 12.1938ZM53.9769 10.6228C54.8723 10.231 55.8346 10.0341 56.8671 10.0341V9.41725C55.7538 9.41725 54.7069 9.63003 53.7296 10.0576L53.9769 10.6228ZM56.8671 10.0341C57.8898 10.0341 58.8305 10.1856 59.6919 10.4852L59.8946 9.90254C58.9613 9.57793 57.9513 9.41725 56.8671 9.41725V10.0341ZM59.6919 10.4852C60.5564 10.7859 61.3024 11.2066 61.934 11.7453L62.3343 11.2759C61.6394 10.6832 60.8248 10.2261 59.8946 9.90254L59.6919 10.4852ZM61.9374 11.7481C62.5875 12.2868 63.1074 12.9364 63.4982 13.6995L64.0473 13.4183C63.6188 12.5818 63.0464 11.8659 62.3309 11.2731L61.9374 11.7481ZM63.5025 13.7075C63.9086 14.4459 64.1512 15.2808 64.2261 16.217L64.841 16.1678C64.7599 15.1533 64.4952 14.2324 64.043 13.4103L63.5025 13.7075ZM64.2275 16.2307C64.2653 16.533 64.2836 16.8028 64.2836 17.041H64.9005C64.9005 16.772 64.8799 16.4761 64.8396 16.1541L64.2275 16.2307ZM64.2836 17.041C64.2836 17.0811 64.2758 17.1918 64.2559 17.3907L64.8697 17.4521C64.8889 17.2608 64.9005 17.1178 64.9005 17.041H64.2836ZM64.2544 17.4214C64.2544 17.5877 64.2451 17.8342 64.2256 18.164L64.8415 18.2003C64.8611 17.8669 64.8713 17.6061 64.8713 17.4214H64.2544ZM64.5336 17.8737H51.7464V18.4906H64.5336V17.8737ZM62.178 16.1645C62.1161 15.4844 61.94 14.8678 61.6449 14.3198L61.1018 14.6122C61.3529 15.0786 61.5084 15.613 61.5636 16.2203L62.178 16.1645ZM61.6513 14.3322C61.3784 13.7655 60.9996 13.2813 60.5164 12.8822L60.1235 13.3578C60.5377 13.6999 60.8611 14.1131 61.0954 14.5998L61.6513 14.3322ZM60.5216 12.8865C60.0593 12.4873 59.516 12.1855 58.8959 11.9788L58.7008 12.564C59.2512 12.7475 59.7223 13.0113 60.1184 13.3534L60.5216 12.8865ZM58.8959 11.9788C58.2752 11.7719 57.598 11.6704 56.8671 11.6704V12.2872C57.5408 12.2872 58.1511 12.3808 58.7008 12.564L58.8959 11.9788ZM56.8671 11.6704C56.1518 11.6704 55.4899 11.7828 54.885 12.0123L55.1038 12.5891C55.6304 12.3893 56.217 12.2872 56.8671 12.2872V11.6704ZM54.885 12.0123C54.2847 12.24 53.7537 12.5622 53.2946 12.9795L53.7096 13.436C54.1089 13.073 54.5727 12.7905 55.1038 12.5891L54.885 12.0123ZM53.3005 12.9743C52.8444 13.3683 52.4616 13.8343 52.1523 14.3704L52.6866 14.6786C52.9625 14.2004 53.3015 13.7885 53.7037 13.4412L53.3005 12.9743ZM52.1479 14.3783C51.859 14.9148 51.654 15.5006 51.5314 16.1338L52.137 16.251C52.2486 15.6748 52.4337 15.1486 52.691 14.6707L52.1479 14.3783ZM51.8342 16.5008H61.8708V15.884H51.8342V16.5008ZM68.0321 10.0183V9.70986H67.7236V10.0183H68.0321ZM70.373 10.0183H70.6814V9.70986H70.373V10.0183ZM70.373 13.3248H70.0645L70.6489 13.4627L70.373 13.3248ZM72.8309 10.6328L72.9829 10.9012L72.9866 10.899L72.8309 10.6328ZM76.1959 9.72569H76.5044V9.41725H76.1959V9.72569ZM76.1959 12.2714V12.5798H76.5044V12.2714H76.1959ZM74.1769 12.6518L74.277 12.9436L74.2817 12.9419L74.1769 12.6518ZM72.3042 13.7052L72.5009 13.9428L72.3042 13.7052ZM70.8997 15.4609L70.6269 15.3169L70.6254 15.3198L70.8997 15.4609ZM70.373 25V25.3084H70.6814V25H70.373ZM68.0321 25H67.7236V25.3084H68.0321V25ZM68.0321 10.3267H70.373V9.70986H68.0321V10.3267ZM70.0645 10.0183V13.3248H70.6814V10.0183H70.0645ZM70.6489 13.4627C71.2301 12.3003 72.0095 11.4522 72.9829 10.9012L72.679 10.3644C71.5846 10.9838 70.7253 11.9304 70.0971 13.1869L70.6489 13.4627ZM72.9866 10.899C73.9728 10.3222 75.0407 10.0341 76.1959 10.0341V9.41725C74.9323 9.41725 73.7568 9.73389 72.6752 10.3665L72.9866 10.899ZM75.8875 9.72569V12.2714H76.5044V9.72569H75.8875ZM76.1959 11.963C75.5113 11.963 74.8028 12.0979 74.0722 12.3617L74.2817 12.9419C74.9556 12.6985 75.5931 12.5798 76.1959 12.5798V11.963ZM74.0769 12.36C73.3583 12.6064 72.7014 12.9761 72.1076 13.4676L72.5009 13.9428C73.0384 13.498 73.63 13.1654 74.277 12.9436L74.0769 12.36ZM72.1076 13.4676C71.5081 13.9637 71.0149 14.5817 70.6269 15.3169L71.1725 15.6048C71.5257 14.9355 71.9689 14.3831 72.5009 13.9428L72.1076 13.4676ZM70.6254 15.3198C70.2479 16.0539 70.0645 16.9038 70.0645 17.8603H70.6814C70.6814 16.983 70.8492 16.2334 71.174 15.6019L70.6254 15.3198ZM70.0645 17.8603V25H70.6814V17.8603H70.0645ZM70.373 24.6916H68.0321V25.3084H70.373V24.6916ZM68.3405 25V10.0183H67.7236V25H68.3405ZM78.8491 14.466L79.1317 14.5896L79.1326 14.5875L78.8491 14.466ZM82.9749 10.3402L83.0936 10.6249L83.0964 10.6237L82.9749 10.3402ZM89.032 10.3402L88.9083 10.6228L88.9154 10.6257L89.032 10.3402ZM91.5192 11.9788L91.3011 12.1969L91.5192 11.9788ZM93.1871 14.466L92.9036 14.5875L92.9045 14.5896L93.1871 14.466ZM93.1871 20.523L92.9045 20.3994V20.3994L93.1871 20.523ZM91.5192 22.981L91.3011 22.7629L91.5192 22.981ZM89.032 24.6489L88.9105 24.3654L88.9084 24.3663L89.032 24.6489ZM82.9749 24.6489L82.8513 24.9315L82.8534 24.9324L82.9749 24.6489ZM80.517 22.981L80.7351 22.7629L80.517 22.981ZM78.8491 20.523L79.1317 20.3994L78.8491 20.523ZM81.1022 19.5574L80.8112 19.6602L80.8152 19.6705L81.1022 19.5574ZM82.1556 21.2838L81.9245 21.4882L81.929 21.493L82.1556 21.2838ZM83.8235 22.5128L83.6889 22.7905L83.699 22.795L83.8235 22.5128ZM88.1834 22.5128L88.3111 22.7936L88.3147 22.7919L88.1834 22.5128ZM89.8513 21.2838L89.6203 21.0795L89.8513 21.2838ZM90.8754 19.5574L90.5873 19.4473L90.5856 19.452L90.8754 19.5574ZM90.8754 15.4609L90.5845 15.5636L90.5873 15.571L90.8754 15.4609ZM89.8513 13.7052L89.6203 13.9096L89.8513 13.7052ZM88.1834 12.5055L88.0488 12.7832L88.0589 12.7877L88.1834 12.5055ZM83.8235 12.5055L83.9511 12.7863L83.9548 12.7846L83.8235 12.5055ZM82.1556 13.7052L81.9289 13.4959L81.9246 13.5008L82.1556 13.7052ZM81.1022 15.4609L80.814 15.3507L80.8114 15.3582L81.1022 15.4609ZM78.5431 17.5091C78.5431 16.4563 78.7402 15.4844 79.1317 14.5896L78.5665 14.3424C78.1387 15.3203 77.9262 16.3772 77.9262 17.5091H78.5431ZM79.1326 14.5875C79.5275 13.666 80.0619 12.8701 80.7351 12.1969L80.2989 11.7607C79.5676 12.492 78.99 13.3543 78.5656 14.3445L79.1326 14.5875ZM80.7351 12.1969C81.4083 11.5237 82.1936 10.9999 83.0936 10.6249L82.8563 10.0555C81.8836 10.4608 81.0303 11.0293 80.2989 11.7607L80.7351 12.1969ZM83.0964 10.6237C84.0127 10.231 84.9856 10.0341 86.0181 10.0341V9.41725C84.9048 9.41725 83.8489 9.63003 82.8534 10.0567L83.0964 10.6237ZM86.0181 10.0341C87.0506 10.0341 88.0129 10.231 88.9084 10.6228L89.1556 10.0576C88.1783 9.63003 87.1314 9.41725 86.0181 9.41725V10.0341ZM88.9154 10.6257C89.8348 11.001 90.629 11.5248 91.3011 12.1969L91.7373 11.7607C91.0048 11.0283 90.1409 10.4596 89.1485 10.0546L88.9154 10.6257ZM91.3011 12.1969C91.9743 12.8701 92.5086 13.666 92.9036 14.5875L93.4706 14.3445C93.0462 13.3543 92.4686 12.492 91.7373 11.7607L91.3011 12.1969ZM92.9045 14.5896C93.2959 15.4844 93.4931 16.4563 93.4931 17.5091H94.11C94.11 16.3772 93.8975 15.3203 93.4696 14.3424L92.9045 14.5896ZM93.4931 17.5091C93.4931 18.5417 93.2962 19.504 92.9045 20.3994L93.4696 20.6467C93.8972 19.6694 94.11 18.6224 94.11 17.5091H93.4931ZM92.9045 20.3994C92.5098 21.3016 91.9754 22.0886 91.3011 22.7629L91.7373 23.1991C92.4675 22.4688 93.045 21.6172 93.4696 20.6467L92.9045 20.3994ZM91.3011 22.7629C90.6279 23.4361 89.832 23.9704 88.9105 24.3654L89.1535 24.9324C90.1437 24.508 91.006 23.9304 91.7373 23.1991L91.3011 22.7629ZM88.9084 24.3663C88.0129 24.758 87.0506 24.9549 86.0181 24.9549V25.5718C87.1314 25.5718 88.1783 25.359 89.1556 24.9314L88.9084 24.3663ZM86.0181 24.9549C84.9856 24.9549 84.0127 24.758 83.0964 24.3654L82.8534 24.9324C83.8489 25.359 84.9048 25.5718 86.0181 25.5718V24.9549ZM83.0986 24.3663C82.1964 23.9716 81.4094 23.4372 80.7351 22.7629L80.2989 23.1991C81.0292 23.9293 81.8808 24.5068 82.8513 24.9314L83.0986 24.3663ZM80.7351 22.7629C80.0608 22.0886 79.5264 21.3016 79.1317 20.3994L78.5665 20.6467C78.9911 21.6172 79.5686 22.4688 80.2989 23.1991L80.7351 22.7629ZM79.1317 20.3994C78.7399 19.504 78.5431 18.5417 78.5431 17.5091H77.9262C77.9262 18.6224 78.139 19.6694 78.5665 20.6467L79.1317 20.3994ZM80.4426 17.5091C80.4426 18.2464 80.5657 18.9639 80.8114 19.6601L81.3931 19.4548C81.1706 18.8244 81.0595 18.1764 81.0595 17.5091H80.4426ZM80.8152 19.6705C81.0817 20.347 81.4516 20.9535 81.9246 21.4882L82.3866 21.0795C81.9623 20.5998 81.6299 20.0554 81.3892 19.4444L80.8152 19.6705ZM81.929 21.493C82.4243 22.0296 83.0118 22.462 83.6889 22.7903L83.9581 22.2353C83.3477 21.9393 82.8233 21.5525 82.3823 21.0746L81.929 21.493ZM83.699 22.795C84.4054 23.1066 85.1799 23.2602 86.0181 23.2602V22.6433C85.2567 22.6433 84.5681 22.5042 83.948 22.2306L83.699 22.795ZM86.0181 23.2602C86.8561 23.2602 87.6223 23.1067 88.311 22.7936L88.0558 22.232C87.4571 22.5042 86.7796 22.6433 86.0181 22.6433V23.2602ZM88.3147 22.7919C89.0128 22.4634 89.6036 22.0293 90.0823 21.4882L89.6203 21.0795C89.2016 21.5527 88.6805 21.938 88.0521 22.2337L88.3147 22.7919ZM90.0823 21.4882C90.5569 20.9517 90.9181 20.3425 91.1653 19.6628L90.5856 19.452C90.3645 20.0598 90.043 20.6016 89.6203 21.0795L90.0823 21.4882ZM91.1635 19.6676C91.4304 18.9696 91.5643 18.2495 91.5643 17.5091H90.9474C90.9474 18.1733 90.8276 18.8188 90.5873 19.4473L91.1635 19.6676ZM91.5643 17.5091C91.5643 16.7688 91.4304 16.0487 91.1635 15.3507L90.5873 15.571C90.8276 16.1995 90.9474 16.845 90.9474 17.5091H91.5643ZM91.1663 15.3582C90.9195 14.659 90.5583 14.0389 90.0823 13.5008L89.6203 13.9096C90.0416 14.3859 90.3632 14.9362 90.5846 15.5635L91.1663 15.3582ZM90.0823 13.5008C89.6021 12.958 89.0089 12.5326 88.3079 12.2233L88.0589 12.7877C88.6844 13.0636 89.2031 13.438 89.6203 13.9096L90.0823 13.5008ZM88.318 12.228C87.6276 11.8932 86.859 11.7289 86.0181 11.7289V12.3458C86.7768 12.3458 87.4518 12.4935 88.0488 12.783L88.318 12.228ZM86.0181 11.7289C85.1771 11.7289 84.4001 11.8932 83.6922 12.2264L83.9548 12.7846C84.5734 12.4935 85.2595 12.3458 86.0181 12.3458V11.7289ZM83.6959 12.2247C83.0156 12.5339 82.4257 12.9578 81.929 13.496L82.3823 13.9144C82.8218 13.4382 83.3439 13.0623 83.9511 12.7863L83.6959 12.2247ZM81.9246 13.5008C81.4502 14.0371 81.0803 14.6546 80.8141 15.3507L81.3903 15.571C81.6313 14.9406 81.9637 14.3877 82.3866 13.9096L81.9246 13.5008ZM80.8114 15.3582C80.5657 16.0544 80.4426 16.7719 80.4426 17.5091H81.0595C81.0595 16.8419 81.1706 16.1939 81.3931 15.5635L80.8114 15.3582Z" fill="black"/>
<path d="M19.1234 15.5649L0 4.5769V26.6586L19.1234 15.5649Z" fill="#6CD14E"/>
</svg>
