<svg width="126" height="46" viewBox="0 0 126 46" fill="none" xmlns="http://www.w3.org/2000/svg">
<path d="M10.0713 20.0642C10.0713 18.2364 10.4189 16.5117 11.1139 14.8899C11.809 13.2681 12.7615 11.8522 13.9714 10.6423C15.1813 9.43236 16.5972 8.47987 18.219 7.78481C19.8408 7.08976 21.5656 6.74223 23.3933 6.74223C25.2468 6.74223 26.9716 7.08976 28.5676 7.78481C30.1894 8.47987 31.6053 9.43236 32.8152 10.6423C34.0251 11.8522 34.9776 13.2681 35.6727 14.8899C36.3677 16.5117 36.7153 18.2364 36.7153 20.0642C36.7153 21.9177 36.3677 23.6553 35.6727 25.2771C34.9776 26.8732 34.0251 28.2762 32.8152 29.4861C31.6053 30.696 30.1894 31.6485 28.5676 32.3436C26.9716 33.0386 25.2468 33.3861 23.3933 33.3861C21.5656 33.3861 19.8408 33.0386 18.219 32.3436C16.5972 31.6485 15.1813 30.696 13.9714 29.4861C12.7615 28.2762 11.809 26.8732 11.1139 25.2771C10.4189 23.6553 10.0713 21.9177 10.0713 20.0642ZM13.5466 20.0642C13.5466 21.4286 13.8041 22.7286 14.3189 23.9642C14.8338 25.1742 15.5417 26.2425 16.4427 27.1692C17.3437 28.0702 18.3863 28.791 19.5705 29.3316C20.7804 29.8465 22.0547 30.1039 23.3933 30.1039C24.7577 30.1039 26.032 29.8465 27.2161 29.3316C28.4003 28.791 29.4429 28.0702 30.3439 27.1692C31.2449 26.2425 31.9528 25.1742 32.4677 23.9642C32.9825 22.7286 33.24 21.4286 33.24 20.0642C33.24 18.6998 32.9825 17.4127 32.4677 16.2027C31.9528 14.9671 31.2449 13.8988 30.3439 12.9978C29.4429 12.071 28.4003 11.3502 27.2161 10.8354C26.032 10.2947 24.7577 10.0244 23.3933 10.0244C22.0547 10.0244 20.7804 10.2947 19.5705 10.8354C18.3863 11.3502 17.3437 12.071 16.4427 12.9978C15.5417 13.8988 14.8338 14.9671 14.3189 16.2027C13.8041 17.4127 13.5466 18.6998 13.5466 20.0642ZM40.1921 23.1533C40.1921 21.7117 40.4366 20.3731 40.9257 19.1374C41.4406 17.876 42.1357 16.782 43.0109 15.8552C43.8862 14.9285 44.9288 14.1948 46.1387 13.6542C47.3486 13.1136 48.6615 12.8433 50.0773 12.8433C51.8536 12.8433 53.3209 13.1651 54.4794 13.8087C55.6378 14.4265 56.5774 15.276 57.2982 16.3572V5.19765H60.3874V33H57.2982V29.8722C56.5774 30.9534 55.6378 31.803 54.4794 32.4208C53.3209 33.0386 51.8536 33.3475 50.0773 33.3475C48.6615 33.3475 47.3486 33.0772 46.1387 32.5366C44.9288 31.996 43.8862 31.2624 43.0109 30.3356C42.1357 29.4089 41.4406 28.3277 40.9257 27.092C40.4366 25.8563 40.1921 24.5435 40.1921 23.1533ZM57.2982 21.6088C57.1438 20.7592 56.8606 19.987 56.4487 19.2919C56.0626 18.5711 55.5735 17.9661 54.9814 17.477C54.3893 16.9622 53.7071 16.576 52.9348 16.3186C52.1625 16.0354 51.3387 15.8938 50.4635 15.8938C49.3823 15.8938 48.4041 16.0998 47.5288 16.5117C46.6535 16.8978 45.9199 17.4255 45.3278 18.0949C44.7357 18.7642 44.2723 19.5365 43.9377 20.4117C43.6287 21.287 43.4743 22.2008 43.4743 23.1533C43.4743 24.0801 43.6287 24.9811 43.9377 25.8563C44.2723 26.7059 44.7357 27.4653 45.3278 28.1346C45.9199 28.7782 46.6535 29.3059 47.5288 29.7178C48.4041 30.1039 49.3823 30.297 50.4635 30.297C51.3902 30.297 52.2397 30.1554 53.012 29.8722C53.7843 29.5633 54.4665 29.1643 55.0586 28.6752C55.6507 28.1603 56.1398 27.5682 56.5259 26.8989C56.9121 26.2296 57.1695 25.5088 57.2982 24.7365V21.6088ZM68.287 24.0029C68.39 24.8781 68.6217 25.7148 68.9821 26.5128C69.3682 27.2851 69.8574 27.9544 70.4494 28.5207C71.0415 29.0871 71.7495 29.5376 72.5732 29.8722C73.397 30.2069 74.298 30.3742 75.2762 30.3742C76.6149 30.3742 77.7476 30.1039 78.6743 29.5633C79.601 28.997 80.2961 28.3019 80.7595 27.4781H84.5051C83.913 29.2287 82.806 30.6445 81.1842 31.7257C79.5882 32.8069 77.6188 33.3475 75.2762 33.3475C73.8604 33.3475 72.5217 33.0772 71.2603 32.5366C70.0247 31.996 68.9435 31.2624 68.0167 30.3356C67.09 29.4089 66.3563 28.3277 65.8157 27.092C65.2751 25.8563 65.0048 24.5306 65.0048 23.1147C65.0048 21.6731 65.2622 20.3345 65.7771 19.0988C66.292 17.8374 66.9999 16.7433 67.9009 15.8166C68.8019 14.8899 69.8574 14.1691 71.0673 13.6542C72.3029 13.1136 73.6287 12.8433 75.0446 12.8433C76.4347 12.8433 77.7218 13.0492 78.906 13.4611C80.0902 13.873 81.1199 14.4522 81.9951 15.1988C82.8961 15.9453 83.6169 16.8463 84.1575 17.9018C84.7239 18.9315 85.0585 20.0899 85.1615 21.3771C85.213 21.789 85.2387 22.1622 85.2387 22.4969C85.2387 22.5741 85.2259 22.7414 85.2001 22.9989C85.2001 23.2306 85.1873 23.5652 85.1615 24.0029H68.287ZM81.6476 21.3771C81.5704 20.5276 81.3516 19.7681 80.9912 19.0988C80.6565 18.4038 80.1931 17.8117 79.601 17.3226C79.0347 16.8334 78.3654 16.4602 77.5931 16.2027C76.8208 15.9453 75.9713 15.8166 75.0446 15.8166C74.1435 15.8166 73.3198 15.9582 72.5732 16.2414C71.8267 16.5245 71.1702 16.9235 70.6039 17.4384C70.0376 17.9275 69.5613 18.5067 69.1752 19.1761C68.8148 19.8454 68.5573 20.579 68.4029 21.3771H81.6476ZM89.7783 13.2294H92.8675V17.5929C93.6655 15.9968 94.7467 14.8126 96.1111 14.0403C97.4755 13.2423 98.9557 12.8433 100.552 12.8433V16.2027C99.7022 16.2027 98.8141 16.3701 97.8874 16.7047C96.9864 17.0136 96.1626 17.477 95.416 18.0949C94.6695 18.7127 94.0517 19.485 93.5626 20.4117C93.0992 21.3127 92.8675 22.3682 92.8675 23.5781V33H89.7783V13.2294ZM103.242 23.1147C103.242 21.6731 103.512 20.3345 104.053 19.0988C104.594 17.8374 105.327 16.7433 106.254 15.8166C107.181 14.8899 108.262 14.1691 109.498 13.6542C110.759 13.1136 112.098 12.8433 113.514 12.8433C114.929 12.8433 116.255 13.1136 117.491 13.6542C118.752 14.1691 119.846 14.8899 120.773 15.8166C121.7 16.7433 122.433 17.8374 122.974 19.0988C123.515 20.3345 123.785 21.6731 123.785 23.1147C123.785 24.5306 123.515 25.8563 122.974 27.092C122.433 28.3277 121.7 29.4089 120.773 30.3356C119.846 31.2624 118.752 31.996 117.491 32.5366C116.255 33.0772 114.929 33.3475 113.514 33.3475C112.098 33.3475 110.759 33.0772 109.498 32.5366C108.262 31.996 107.181 31.2624 106.254 30.3356C105.327 29.4089 104.594 28.3277 104.053 27.092C103.512 25.8563 103.242 24.5306 103.242 23.1147ZM106.563 23.1147C106.563 24.0415 106.717 24.9425 107.026 25.8177C107.361 26.6672 107.824 27.4267 108.416 28.096C109.034 28.7653 109.768 29.3059 110.617 29.7178C111.493 30.1039 112.458 30.297 113.514 30.297C114.569 30.297 115.521 30.1039 116.371 29.7178C117.246 29.3059 117.98 28.7653 118.572 28.096C119.164 27.4267 119.615 26.6672 119.924 25.8177C120.258 24.9425 120.425 24.0415 120.425 23.1147C120.425 22.188 120.258 21.287 119.924 20.4117C119.615 19.5365 119.164 18.7642 118.572 18.0949C117.98 17.4255 117.246 16.8978 116.371 16.5117C115.521 16.0998 114.569 15.8938 113.514 15.8938C112.458 15.8938 111.493 16.0998 110.617 16.5117C109.768 16.8978 109.034 17.4255 108.416 18.0949C107.824 18.7642 107.361 19.5365 107.026 20.4117C106.717 21.287 106.563 22.188 106.563 23.1147Z" fill="white"/>
<path d="M11.1139 14.8899L11.4881 15.0502L11.1139 14.8899ZM13.9714 10.6423L13.6836 10.3545L13.9714 10.6423ZM18.219 7.78481L18.0586 7.41069H18.0586L18.219 7.78481ZM28.5676 7.78481L28.4051 8.158L28.4073 8.15894L28.5676 7.78481ZM32.8152 10.6423L33.103 10.3545L32.8152 10.6423ZM35.6727 14.8899L36.0468 14.7295L35.6727 14.8899ZM35.6727 25.2771L36.0459 25.4396L36.0468 25.4375L35.6727 25.2771ZM32.8152 29.4861L33.103 29.7739L32.8152 29.4861ZM28.5676 32.3436L28.4073 31.9694L28.4051 31.9704L28.5676 32.3436ZM18.219 32.3436L18.0586 32.7177L18.219 32.3436ZM13.9714 29.4861L13.6836 29.7739L13.9714 29.4861ZM11.1139 25.2771L10.7398 25.4375L10.7407 25.4396L11.1139 25.2771ZM14.3189 23.9642L13.9432 24.1208L13.9444 24.1236L14.3189 23.9642ZM16.4427 27.1692L16.1508 27.453L16.1549 27.457L16.4427 27.1692ZM19.5705 29.3316L19.4014 29.702L19.4111 29.7062L19.5705 29.3316ZM27.2161 29.3316L27.3784 29.705L27.3852 29.7019L27.2161 29.3316ZM30.3439 27.1692L30.6317 27.4571L30.6357 27.453L30.3439 27.1692ZM32.4677 23.9642L32.8422 24.1236L32.8434 24.1208L32.4677 23.9642ZM32.4677 16.2027L32.0919 16.3593L32.0931 16.3621L32.4677 16.2027ZM30.3439 12.9978L30.052 13.2815L30.0561 13.2856L30.3439 12.9978ZM27.2161 10.8354L27.0471 11.2057L27.0538 11.2086L27.2161 10.8354ZM19.5705 10.8354L19.7328 11.2086L19.7365 11.207L19.5705 10.8354ZM16.4427 12.9978L16.7306 13.2856L16.7346 13.2815L16.4427 12.9978ZM14.3189 16.2027L14.6935 16.3621L14.6946 16.3593L14.3189 16.2027ZM10.4784 20.0642C10.4784 18.2895 10.8155 16.6195 11.4881 15.0502L10.7398 14.7295C10.0223 16.4038 9.66431 18.1833 9.66431 20.0642H10.4784ZM11.4881 15.0502C12.1634 13.4745 13.0871 12.1022 14.2592 10.9301L13.6836 10.3545C12.4359 11.6021 11.4546 13.0616 10.7398 14.7295L11.4881 15.0502ZM14.2592 10.9301C15.4314 9.75794 16.8036 8.83425 18.3793 8.15894L18.0586 7.41069C16.3908 8.1255 14.9313 9.10678 13.6836 10.3545L14.2592 10.9301ZM18.3793 8.15894C19.9486 7.48637 21.6187 7.14926 23.3933 7.14926V6.33519C21.5125 6.33519 19.7329 6.69314 18.0586 7.41069L18.3793 8.15894ZM23.3933 7.14926C25.1945 7.14926 26.8636 7.48669 28.4051 8.158L28.7301 7.41163C27.0795 6.69282 25.299 6.33519 23.3933 6.33519V7.14926ZM28.4073 8.15894C29.983 8.83425 31.3552 9.75794 32.5274 10.9301L33.103 10.3545C31.8553 9.10678 30.3959 8.1255 28.728 7.41069L28.4073 8.15894ZM32.5274 10.9301C33.6995 12.1022 34.6232 13.4745 35.2986 15.0502L36.0468 14.7295C35.332 13.0616 34.3507 11.6021 33.103 10.3545L32.5274 10.9301ZM35.2986 15.0502C35.9711 16.6195 36.3082 18.2895 36.3082 20.0642H37.1223C37.1223 18.1833 36.7644 16.4038 36.0468 14.7295L35.2986 15.0502ZM36.3082 20.0642C36.3082 21.8654 35.9708 23.5482 35.2986 25.1168L36.0468 25.4375C36.7647 23.7625 37.1223 21.97 37.1223 20.0642H36.3082ZM35.2995 25.1146C34.6244 26.6648 33.7006 28.025 32.5274 29.1983L33.103 29.7739C34.3496 28.5273 35.3308 27.0816 36.0459 25.4396L35.2995 25.1146ZM32.5274 29.1983C31.3552 30.3704 29.983 31.2941 28.4073 31.9694L28.728 32.7177C30.3959 32.0029 31.8553 31.0216 33.103 29.7739L32.5274 29.1983ZM28.4051 31.9704C26.8636 32.6417 25.1945 32.9791 23.3933 32.9791V33.7932C25.299 33.7932 27.0795 33.4355 28.7301 32.7167L28.4051 31.9704ZM23.3933 32.9791C21.6187 32.9791 19.9486 32.642 18.3793 31.9694L18.0586 32.7177C19.7329 33.4352 21.5125 33.7932 23.3933 33.7932V32.9791ZM18.3793 31.9694C16.8036 31.2941 15.4314 30.3704 14.2592 29.1983L13.6836 29.7739C14.9313 31.0216 16.3908 32.0029 18.0586 32.7177L18.3793 31.9694ZM14.2592 29.1983C13.086 28.025 12.1622 26.6648 11.4871 25.1146L10.7407 25.4396C11.4558 27.0816 12.437 28.5273 13.6836 29.7739L14.2592 29.1983ZM11.4881 25.1168C10.8158 23.5482 10.4784 21.8654 10.4784 20.0642H9.66431C9.66431 21.97 10.0219 23.7625 10.7398 25.4375L11.4881 25.1168ZM13.1396 20.0642C13.1396 21.4812 13.4073 22.8346 13.9432 24.1208L14.6946 23.8077C14.2009 22.6226 13.9537 21.3759 13.9537 20.0642H13.1396ZM13.9444 24.1236C14.4786 25.3789 15.2143 26.4896 16.1509 27.453L16.7346 26.8855C15.8692 25.9954 15.189 24.9694 14.6935 23.8049L13.9444 24.1236ZM16.1549 27.457C17.091 28.3932 18.174 29.1416 19.4014 29.7019L19.7395 28.9614C18.5986 28.4405 17.5964 27.7473 16.7305 26.8814L16.1549 27.457ZM19.4111 29.7062C20.6723 30.2429 22.0009 30.511 23.3933 30.511V29.6969C22.1084 29.6969 20.8885 29.4501 19.7299 28.9571L19.4111 29.7062ZM23.3933 30.511C24.8103 30.511 26.1402 30.2433 27.3784 29.7049L27.0538 28.9584C25.9237 29.4497 24.7051 29.6969 23.3933 29.6969V30.511ZM27.3852 29.7019C28.6126 29.1416 29.6956 28.3932 30.6317 27.457L30.0561 26.8814C29.1902 27.7473 28.188 28.4405 27.0471 28.9614L27.3852 29.7019ZM30.6357 27.453C31.5723 26.4896 32.308 25.3789 32.8422 24.1236L32.0931 23.8049C31.5976 24.9694 30.9174 25.9954 30.052 26.8855L30.6357 27.453ZM32.8434 24.1208C33.3793 22.8346 33.647 21.4812 33.647 20.0642H32.8329C32.8329 21.3759 32.5857 22.6226 32.092 23.8077L32.8434 24.1208ZM33.647 20.0642C33.647 18.6471 33.3793 17.3056 32.8422 16.0434L32.0931 16.3621C32.5858 17.5197 32.8329 18.7525 32.8329 20.0642H33.647ZM32.8434 16.0462C32.3091 14.764 31.5722 13.6504 30.6317 12.7099L30.0561 13.2856C30.9176 14.1471 31.5965 15.1702 32.092 16.3593L32.8434 16.0462ZM30.6357 12.714C29.6978 11.7493 28.6112 10.9981 27.3784 10.4621L27.0538 11.2086C28.1894 11.7023 29.188 12.3927 30.052 13.2815L30.6357 12.714ZM27.3852 10.4651C26.1454 9.89909 24.8131 9.61741 23.3933 9.61741V10.4315C24.7022 10.4315 25.9185 10.6904 27.0471 11.2056L27.3852 10.4651ZM23.3933 9.61741C21.998 9.61741 20.6671 9.89954 19.4044 10.4637L19.7365 11.207C20.8937 10.69 22.1113 10.4315 23.3933 10.4315V9.61741ZM19.4082 10.4621C18.1754 10.9981 17.0888 11.7493 16.1509 12.714L16.7346 13.2815C17.5987 12.3927 18.5972 11.7023 19.7328 11.2086L19.4082 10.4621ZM16.1549 12.7099C15.2144 13.6504 14.4775 14.764 13.9432 16.0462L14.6946 16.3593C15.1901 15.1702 15.869 14.1471 16.7305 13.2856L16.1549 12.7099ZM13.9444 16.0434C13.4073 17.3056 13.1396 18.6471 13.1396 20.0642H13.9537C13.9537 18.7525 14.2009 17.5197 14.6935 16.3621L13.9444 16.0434ZM40.9257 19.1374L40.5489 18.9836L40.5473 18.9876L40.9257 19.1374ZM43.0109 15.8552L42.715 15.5757L43.0109 15.8552ZM46.1387 13.6542L45.9726 13.2826L46.1387 13.6542ZM54.4794 13.8087L54.2817 14.1645L54.2878 14.1678L54.4794 13.8087ZM57.2982 16.3572L56.9596 16.583L57.7053 17.7015V16.3572H57.2982ZM57.2982 5.19765V4.79062H56.8912V5.19765H57.2982ZM60.3874 5.19765H60.7944V4.79062H60.3874V5.19765ZM60.3874 33V33.407H60.7944V33H60.3874ZM57.2982 33H56.8912V33.407H57.2982V33ZM57.2982 29.8722H57.7053V28.5279L56.9596 29.6465L57.2982 29.8722ZM54.4794 32.4208L54.6709 32.7799L54.4794 32.4208ZM46.1387 32.5366L46.3047 32.165L46.1387 32.5366ZM43.0109 30.3356L43.3068 30.0561L43.0109 30.3356ZM40.9257 27.092L40.5472 27.2418L40.55 27.2486L40.9257 27.092ZM57.2982 21.6088H57.7053V21.5721L57.6987 21.5359L57.2982 21.6088ZM56.4487 19.2919L56.0899 19.4841L56.0941 19.4918L56.0985 19.4994L56.4487 19.2919ZM54.9814 17.477L54.7142 17.7843L54.7221 17.7908L54.9814 17.477ZM52.9348 16.3186L52.7946 16.7009L52.8061 16.7047L52.9348 16.3186ZM47.5288 16.5117L47.6931 16.8842L47.7021 16.88L47.5288 16.5117ZM45.3278 18.0949L45.6326 18.3645L45.3278 18.0949ZM43.9377 20.4117L43.5573 20.2663L43.5538 20.2762L43.9377 20.4117ZM43.9377 25.8563L43.5538 25.9918L43.5563 25.9987L43.5589 26.0055L43.9377 25.8563ZM45.3278 28.1346L45.0229 28.4043L45.0282 28.4102L45.3278 28.1346ZM47.5288 29.7178L47.3554 30.0862L47.3645 30.0902L47.5288 29.7178ZM53.012 29.8722L53.1522 30.2546L53.1632 30.2502L53.012 29.8722ZM55.0586 28.6752L55.3179 28.9891L55.3257 28.9823L55.0586 28.6752ZM56.5259 26.8989L56.8785 27.1023L56.5259 26.8989ZM57.2982 24.7365L57.6997 24.8034L57.7053 24.7702V24.7365H57.2982ZM40.5991 23.1533C40.5991 21.7586 40.8355 20.4713 41.3042 19.2872L40.5473 18.9876C40.0377 20.2749 39.785 21.6648 39.785 23.1533H40.5991ZM41.3026 19.2913C41.7998 18.0732 42.4684 17.0225 43.3068 16.1347L42.715 15.5757C41.8029 16.5415 41.0814 17.6789 40.5489 18.9836L41.3026 19.2913ZM43.3068 16.1347C44.1438 15.2485 45.1418 14.5454 46.3047 14.0258L45.9726 13.2826C44.7158 13.8442 43.6285 14.6085 42.715 15.5757L43.3068 16.1347ZM46.3047 14.0258C47.4589 13.5101 48.7147 13.2503 50.0773 13.2503V12.4363C48.6082 12.4363 47.2383 12.7171 45.9726 13.2826L46.3047 14.0258ZM50.0773 13.2503C51.8071 13.2503 53.2009 13.564 54.2817 14.1645L54.6771 13.4528C53.441 12.7662 51.9001 12.4363 50.0773 12.4363V13.2503ZM54.2878 14.1678C55.3876 14.7543 56.2764 15.5583 56.9596 16.583L57.6369 16.1314C56.8784 14.9937 55.888 14.0986 54.6709 13.4495L54.2878 14.1678ZM57.7053 16.3572V5.19765H56.8912V16.3572H57.7053ZM57.2982 5.60468H60.3874V4.79062H57.2982V5.60468ZM59.9803 5.19765V33H60.7944V5.19765H59.9803ZM60.3874 32.593H57.2982V33.407H60.3874V32.593ZM57.7053 33V29.8722H56.8912V33H57.7053ZM56.9596 29.6465C56.2764 30.6711 55.3876 31.4751 54.2878 32.0616L54.6709 32.7799C55.888 32.1308 56.8784 31.2357 57.6369 30.098L56.9596 29.6465ZM54.2878 32.0616C53.2055 32.6389 51.8093 32.9405 50.0773 32.9405V33.7546C51.8979 33.7546 53.4364 33.4383 54.6709 32.7799L54.2878 32.0616ZM50.0773 32.9405C48.7147 32.9405 47.4589 32.6807 46.3047 32.165L45.9726 32.9083C47.2383 33.4738 48.6082 33.7546 50.0773 33.7546V32.9405ZM46.3047 32.165C45.1418 31.6454 44.1438 30.9424 43.3068 30.0561L42.715 30.6151C43.6285 31.5823 44.7158 32.3467 45.9726 32.9083L46.3047 32.165ZM43.3068 30.0561C42.4671 29.167 41.7983 28.1279 41.3015 26.9354L40.55 27.2486C41.0829 28.5274 41.8042 29.6508 42.715 30.6151L43.3068 30.0561ZM41.3042 26.9422C40.8348 25.7564 40.5991 24.4946 40.5991 23.1533H39.785C39.785 24.5923 40.0384 25.9563 40.5473 27.2418L41.3042 26.9422ZM57.6987 21.5359C57.5362 20.6422 57.237 19.8238 56.7989 19.0844L56.0985 19.4994C56.4842 20.1501 56.7513 20.8763 56.8978 21.6816L57.6987 21.5359ZM56.8075 19.0997C56.398 18.3353 55.876 17.6881 55.2406 17.1632L54.7221 17.7908C55.2709 18.2441 55.7271 18.8069 56.0899 19.4841L56.8075 19.0997ZM55.2485 17.1699C54.6144 16.6185 53.8847 16.2062 53.0635 15.9324L52.8061 16.7047C53.5294 16.9459 54.1642 17.3058 54.7143 17.7842L55.2485 17.1699ZM53.0749 15.9364C52.255 15.6358 51.3835 15.4868 50.4635 15.4868V16.3009C51.294 16.3009 52.0701 16.4351 52.7947 16.7007L53.0749 15.9364ZM50.4635 15.4868C49.3295 15.4868 48.291 15.7031 47.3555 16.1434L47.7021 16.88C48.5171 16.4964 49.4351 16.3009 50.4635 16.3009V15.4868ZM47.3645 16.1393C46.4394 16.5474 45.6566 17.1088 45.0229 17.8252L45.6326 18.3645C46.1831 17.7423 46.8677 17.2482 47.6931 16.8841L47.3645 16.1393ZM45.0229 17.8252C44.3969 18.5328 43.9087 19.3477 43.5575 20.2663L44.3178 20.5571C44.6359 19.7252 45.0745 18.9955 45.6326 18.3645L45.0229 17.8252ZM43.5538 20.2762C43.2292 21.1962 43.0672 22.1559 43.0672 23.1533H43.8813C43.8813 22.2458 44.0283 21.3778 44.3215 20.5472L43.5538 20.2762ZM43.0672 23.1533C43.0672 24.1263 43.2296 25.0731 43.5538 25.9918L44.3215 25.7209C44.0279 24.8891 43.8813 24.0339 43.8813 23.1533H43.0672ZM43.5589 26.0055C43.9106 26.8982 44.3987 27.6986 45.0229 28.4043L45.6326 27.8649C45.0727 27.2319 44.634 26.5135 44.3164 25.7072L43.5589 26.0055ZM45.0282 28.4102C45.6596 29.0965 46.4376 29.6541 47.3555 30.0861L47.7021 29.3495C46.8695 28.9577 46.1801 28.4599 45.6273 27.859L45.0282 28.4102ZM47.3645 30.0902C48.2979 30.502 49.3331 30.704 50.4635 30.704V29.89C49.4315 29.89 48.5102 29.7059 47.6931 29.3454L47.3645 30.0902ZM50.4635 30.704C51.432 30.704 52.3297 30.556 53.1522 30.2544L52.8719 29.4901C52.1498 29.7548 51.3484 29.89 50.4635 29.89V30.704ZM53.1632 30.2502C53.9714 29.9269 54.6907 29.5071 55.3178 28.989L54.7994 28.3614C54.2423 28.8215 53.5973 29.1998 52.8609 29.4943L53.1632 30.2502ZM55.3257 28.9823C55.9513 28.4383 56.4695 27.8113 56.8785 27.1023L56.1734 26.6955C55.8101 27.3252 55.3501 27.8823 54.7915 28.368L55.3257 28.9823ZM56.8785 27.1023C57.2893 26.3902 57.5631 25.6231 57.6997 24.8034L56.8967 24.6696C56.7759 25.3945 56.5348 26.069 56.1734 26.6955L56.8785 27.1023ZM57.7053 24.7365V21.6088H56.8912V24.7365H57.7053ZM68.287 24.0029V23.5958H67.8293L67.8828 24.0504L68.287 24.0029ZM68.9821 26.5128L68.6111 26.6803L68.6144 26.6876L68.618 26.6948L68.9821 26.5128ZM70.4494 28.5207L70.1681 28.8149L70.4494 28.5207ZM72.5732 29.8722L72.42 30.2493L72.5732 29.8722ZM78.6743 29.5633L78.8794 29.915L78.8866 29.9106L78.6743 29.5633ZM80.7595 27.4781V27.0711H80.5214L80.4047 27.2786L80.7595 27.4781ZM84.5051 27.4781L84.8906 27.6086L85.0724 27.0711H84.5051V27.4781ZM81.1842 31.7257L80.9585 31.387L80.956 31.3887L81.1842 31.7257ZM71.2603 32.5366L71.0972 32.9095L71.1 32.9108L71.2603 32.5366ZM68.0167 30.3356L68.3046 30.0478L68.0167 30.3356ZM65.8157 27.092L66.1886 26.9289L65.8157 27.092ZM65.7771 19.0988L66.1528 19.2554L66.154 19.2526L65.7771 19.0988ZM67.9009 15.8166L67.6091 15.5329V15.5329L67.9009 15.8166ZM71.0673 13.6542L71.2267 14.0288L71.2304 14.0271L71.0673 13.6542ZM78.906 13.4611L79.0397 13.0767L78.906 13.4611ZM81.9951 15.1988L81.731 15.5085L81.7354 15.5122L81.9951 15.1988ZM84.1575 17.9018L83.7951 18.0874L83.8009 18.0979L84.1575 17.9018ZM85.1615 21.3771L84.7558 21.4095L84.7565 21.4186L84.7576 21.4276L85.1615 21.3771ZM85.2001 22.9989L84.7951 22.9584L84.7931 22.9786V22.9989H85.2001ZM85.1615 24.0029V24.4099H85.5453L85.5678 24.0268L85.1615 24.0029ZM81.6476 21.3771V21.7841H82.0933L82.053 21.3402L81.6476 21.3771ZM80.9912 19.0988L80.6244 19.2754L80.6284 19.2837L80.6328 19.2918L80.9912 19.0988ZM79.601 17.3226L79.3349 17.6307L79.3418 17.6364L79.601 17.3226ZM77.5931 16.2027L77.7218 15.8166L77.5931 16.2027ZM70.6039 17.4384L70.87 17.7466L70.8777 17.7396L70.6039 17.4384ZM69.1752 19.1761L68.8224 18.9726L68.8168 18.9831L69.1752 19.1761ZM68.4029 21.3771L68.0033 21.2997L67.9095 21.7841H68.4029V21.3771ZM67.8828 24.0504C67.9906 24.9669 68.2334 25.844 68.6111 26.6803L69.3531 26.3453C69.0099 25.5855 68.7894 24.7894 68.6913 23.9553L67.8828 24.0504ZM68.618 26.6948C69.024 27.5067 69.5404 28.2145 70.1681 28.8149L70.7308 28.2266C70.1743 27.6943 69.7125 27.0635 69.3462 26.3308L68.618 26.6948ZM70.1681 28.8149C70.8003 29.4196 71.5528 29.897 72.42 30.2493L72.7264 29.4951C71.9461 29.1781 71.2827 28.7545 70.7308 28.2266L70.1681 28.8149ZM72.42 30.2493C73.2971 30.6057 74.2508 30.7813 75.2762 30.7813V29.9672C74.3453 29.9672 73.4969 29.8081 72.7264 29.4951L72.42 30.2493ZM75.2762 30.7813C76.6693 30.7813 77.8767 30.4998 78.8794 29.9149L78.4692 29.2117C77.6184 29.7081 76.5605 29.9672 75.2762 29.9672V30.7813ZM78.8866 29.9106C79.8637 29.3135 80.612 28.5706 81.1142 27.6777L80.4047 27.2786C79.9802 28.0332 79.3384 28.6805 78.4621 29.216L78.8866 29.9106ZM80.7595 27.8852H84.5051V27.0711H80.7595V27.8852ZM84.1195 27.3477C83.5579 29.0082 82.5098 30.3528 80.9585 31.3871L81.41 32.0644C83.1022 30.9363 84.2681 29.4491 84.8906 27.6086L84.1195 27.3477ZM80.956 31.3887C79.4406 32.4153 77.5552 32.9405 75.2762 32.9405V33.7546C77.6825 33.7546 79.7358 33.1986 81.4125 32.0627L80.956 31.3887ZM75.2762 32.9405C73.9137 32.9405 72.6298 32.6807 71.4207 32.1625L71.1 32.9108C72.4137 33.4738 73.807 33.7546 75.2762 33.7546V32.9405ZM71.4235 32.1637C70.2329 31.6429 69.1944 30.9376 68.3046 30.0478L67.7289 30.6234C68.6926 31.5871 69.8164 32.3492 71.0972 32.9095L71.4235 32.1637ZM68.3046 30.0478C67.4147 29.158 66.7095 28.1194 66.1886 26.9289L65.4428 27.2551C66.0032 28.5359 66.7652 29.6597 67.7289 30.6234L68.3046 30.0478ZM66.1886 26.9289C65.6716 25.7472 65.4118 24.4773 65.4118 23.1147H64.5978C64.5978 24.5839 64.8786 25.9655 65.4428 27.2551L66.1886 26.9289ZM65.4118 23.1147C65.4118 21.7227 65.6602 20.4377 66.1528 19.2554L65.4014 18.9423C64.8643 20.2313 64.5978 21.6236 64.5978 23.1147H65.4118ZM66.154 19.2526C66.6502 18.0369 67.3301 16.9876 68.1927 16.1003L67.6091 15.5329C66.6697 16.4991 65.9338 17.6379 65.4002 18.945L66.154 19.2526ZM68.1927 16.1003C69.0554 15.213 70.0656 14.5228 71.2266 14.0287L70.9079 13.2797C69.6491 13.8153 68.5484 14.5667 67.6091 15.5329L68.1927 16.1003ZM71.2304 14.0271C72.4121 13.5101 73.682 13.2503 75.0445 13.2503V12.4363C73.5754 12.4363 72.1938 12.7171 70.9041 13.2813L71.2304 14.0271ZM75.0445 13.2503C76.3941 13.2503 77.6355 13.4502 78.7723 13.8456L79.0397 13.0767C77.8081 12.6483 76.4753 12.4363 75.0445 12.4363V13.2503ZM78.7723 13.8456C79.913 14.2423 80.8975 14.7975 81.731 15.5085L82.2593 14.8891C81.3422 14.1069 80.2673 13.5037 79.0397 13.0767L78.7723 13.8456ZM81.7354 15.5122C82.5934 16.223 83.2795 17.0803 83.7953 18.0873L84.5198 17.7162C83.9544 16.6123 83.1989 15.6676 82.2548 14.8853L81.7354 15.5122ZM83.8009 18.0979C84.3368 19.0724 84.6569 20.1741 84.7558 21.4095L85.5673 21.3446C85.4601 20.0058 85.1109 18.7906 84.5142 17.7056L83.8009 18.0979ZM84.7576 21.4276C84.8075 21.8265 84.8317 22.1825 84.8317 22.4969H85.6458C85.6458 22.1419 85.6185 21.7514 85.5654 21.3266L84.7576 21.4276ZM84.8317 22.4969C84.8317 22.5499 84.8214 22.6959 84.7951 22.9584L85.6051 23.0394C85.6304 22.787 85.6458 22.5983 85.6458 22.4969H84.8317ZM84.7931 22.9989C84.7931 23.2184 84.7808 23.5436 84.7552 23.9789L85.5678 24.0268C85.5937 23.5868 85.6072 23.2427 85.6072 22.9989H84.7931ZM85.1615 23.5958H68.287V24.4099H85.1615V23.5958ZM82.053 21.3402C81.9714 20.4427 81.739 19.6291 81.3495 18.9059L80.6328 19.2918C80.9642 19.9072 81.1694 20.6124 81.2422 21.4139L82.053 21.3402ZM81.3579 18.9222C80.9979 18.1745 80.4979 17.5355 79.8603 17.0088L79.3418 17.6364C79.8884 18.0879 80.3152 18.6331 80.6244 19.2754L81.3579 18.9222ZM79.8671 17.0145C79.2571 16.4877 78.5401 16.0894 77.7218 15.8166L77.4644 16.5889C78.1907 16.831 78.8123 17.1792 79.335 17.6306L79.8671 17.0145ZM77.7218 15.8166C76.9027 15.5436 76.0091 15.4096 75.0445 15.4096V16.2236C75.9335 16.2236 76.7389 16.3471 77.4644 16.5889L77.7218 15.8166ZM75.0445 15.4096C74.1005 15.4096 73.2271 15.558 72.4289 15.8608L72.7176 16.6219C73.4125 16.3584 74.1866 16.2236 75.0445 16.2236V15.4096ZM72.4289 15.8608C71.6367 16.1613 70.9359 16.5865 70.3301 17.1372L70.8777 17.7396C71.4046 17.2606 72.0167 16.8878 72.7176 16.6219L72.4289 15.8608ZM70.3379 17.1304C69.7359 17.6502 69.2308 18.2652 68.8226 18.9727L69.5277 19.3795C69.8919 18.7483 70.3392 18.2048 70.8699 17.7465L70.3379 17.1304ZM68.8168 18.9831C68.4356 19.6911 68.165 20.4641 68.0033 21.2997L68.8025 21.4544C68.9497 20.694 69.194 19.9997 69.5335 19.369L68.8168 18.9831ZM68.4029 21.7841H81.6476V20.97H68.4029V21.7841ZM89.7783 13.2294V12.8224H89.3713V13.2294H89.7783ZM92.8675 13.2294H93.2745V12.8224H92.8675V13.2294ZM92.8675 17.5929H92.4605L93.2316 17.7749L92.8675 17.5929ZM96.1111 14.0403L96.3116 14.3946L96.3166 14.3917L96.1111 14.0403ZM100.552 12.8433H100.959V12.4363H100.552V12.8433ZM100.552 16.2027V16.6098H100.959V16.2027H100.552ZM97.8874 16.7047L98.0194 17.0898L98.0256 17.0876L97.8874 16.7047ZM95.416 18.0949L95.6756 18.4084L95.416 18.0949ZM93.5626 20.4117L93.2026 20.2217L93.2006 20.2256L93.5626 20.4117ZM92.8675 33V33.407H93.2745V33H92.8675ZM89.7783 33H89.3713V33.407H89.7783V33ZM89.7783 13.6365H92.8675V12.8224H89.7783V13.6365ZM92.4605 13.2294V17.5929H93.2745V13.2294H92.4605ZM93.2316 17.7749C93.9986 16.2409 95.0271 15.1217 96.3116 14.3946L95.9106 13.6861C94.4664 14.5036 93.3325 15.7527 92.5034 17.4108L93.2316 17.7749ZM96.3166 14.3917C97.618 13.6305 99.0272 13.2503 100.552 13.2503V12.4363C98.8842 12.4363 97.333 12.8541 95.9056 13.689L96.3166 14.3917ZM100.145 12.8433V16.2027H100.959V12.8433H100.145ZM100.552 15.7957C99.6482 15.7957 98.7132 15.9737 97.7491 16.3219L98.0256 17.0876C98.915 16.7664 99.7562 16.6098 100.552 16.6098V15.7957ZM97.7553 16.3197C96.8071 16.6448 95.9402 17.1327 95.1565 17.7813L95.6756 18.4084C96.3849 17.8214 97.1656 17.3825 98.0194 17.0898L97.7553 16.3197ZM95.1565 17.7813C94.3654 18.436 93.7147 19.2515 93.2026 20.2217L93.9225 20.6017C94.3887 19.7185 94.9736 18.9894 95.6756 18.4084L95.1565 17.7813ZM93.2006 20.2256C92.7024 21.1943 92.4605 22.3159 92.4605 23.5781H93.2745C93.2745 22.4204 93.496 21.4311 93.9245 20.5979L93.2006 20.2256ZM92.4605 23.5781V33H93.2745V23.5781H92.4605ZM92.8675 32.593H89.7783V33.407H92.8675V32.593ZM90.1854 33V13.2294H89.3713V33H90.1854ZM104.053 19.0988L104.426 19.262L104.427 19.2592L104.053 19.0988ZM109.498 13.6542L109.654 14.0299L109.658 14.0283L109.498 13.6542ZM117.491 13.6542L117.328 14.0272L117.337 14.031L117.491 13.6542ZM120.773 15.8166L120.485 16.1044L120.773 15.8166ZM122.974 19.0988L122.6 19.2592L122.601 19.262L122.974 19.0988ZM122.974 27.092L122.601 26.9289L122.974 27.092ZM120.773 30.3356L120.485 30.0478L120.773 30.3356ZM117.491 32.5366L117.33 32.1625L117.328 32.1637L117.491 32.5366ZM109.498 32.5366L109.334 32.9095L109.337 32.9108L109.498 32.5366ZM106.254 30.3356L106.542 30.0478L106.254 30.3356ZM104.053 27.092L104.426 26.9289L104.053 27.092ZM107.026 25.8177L106.642 25.9532L106.645 25.9601L106.648 25.9669L107.026 25.8177ZM108.416 28.096L108.111 28.3657L108.117 28.3721L108.416 28.096ZM110.617 29.7178L110.44 30.084L110.446 30.0872L110.453 30.0902L110.617 29.7178ZM116.371 29.7178L116.539 30.0884L116.544 30.0861L116.371 29.7178ZM118.572 28.096L118.267 27.8263L118.572 28.096ZM119.924 25.8177L119.543 25.6723L119.541 25.6786L119.924 25.8177ZM119.924 20.4117L119.54 20.5472L119.543 20.5571L119.924 20.4117ZM118.572 18.0949L118.267 18.3645L118.572 18.0949ZM116.371 16.5117L116.193 16.8779L116.2 16.8811L116.207 16.8841L116.371 16.5117ZM110.617 16.5117L110.786 16.8822L110.791 16.88L110.617 16.5117ZM108.416 18.0949L108.117 17.8187L108.112 17.8252L108.416 18.0949ZM107.026 20.4117L106.646 20.2663L106.642 20.2762L107.026 20.4117ZM103.649 23.1147C103.649 21.7253 103.909 20.4427 104.426 19.262L103.68 18.9357C103.115 20.2263 102.835 21.6209 102.835 23.1147H103.649ZM104.427 19.2592C104.948 18.0431 105.653 16.9928 106.542 16.1044L105.966 15.5288C105.001 16.4939 104.239 17.6318 103.679 18.9385L104.427 19.2592ZM106.542 16.1044C107.43 15.2161 108.467 14.5248 109.654 14.0299L109.341 13.2785C108.057 13.8133 106.931 14.5636 105.966 15.5288L106.542 16.1044ZM109.658 14.0283C110.867 13.5101 112.151 13.2503 113.514 13.2503V12.4363C112.044 12.4363 110.651 12.7171 109.337 13.2801L109.658 14.0283ZM113.514 13.2503C114.876 13.2503 116.146 13.5101 117.328 14.0271L117.654 13.2813C116.364 12.7171 114.983 12.4363 113.514 12.4363V13.2503ZM117.337 14.031C118.55 14.5263 119.598 15.2175 120.485 16.1044L121.061 15.5288C120.094 14.5622 118.954 13.8118 117.645 13.2773L117.337 14.031ZM120.485 16.1044C121.374 16.9928 122.079 18.0431 122.6 19.2592L123.348 18.9385C122.788 17.6318 122.026 16.4939 121.061 15.5288L120.485 16.1044ZM122.601 19.262C123.118 20.4427 123.378 21.7253 123.378 23.1147H124.192C124.192 21.6209 123.912 20.2263 123.347 18.9357L122.601 19.262ZM123.378 23.1147C123.378 24.4773 123.118 25.7472 122.601 26.9289L123.347 27.2551C123.911 25.9655 124.192 24.5839 124.192 23.1147H123.378ZM122.601 26.9289C122.08 28.1194 121.375 29.158 120.485 30.0478L121.061 30.6234C122.025 29.6597 122.787 28.5359 123.347 27.2551L122.601 26.9289ZM120.485 30.0478C119.597 30.9362 118.547 31.6413 117.33 32.1625L117.651 32.9108C118.958 32.3507 120.096 31.5885 121.061 30.6234L120.485 30.0478ZM117.328 32.1637C116.146 32.6807 114.876 32.9405 113.514 32.9405V33.7546C114.983 33.7546 116.364 33.4738 117.654 32.9095L117.328 32.1637ZM113.514 32.9405C112.151 32.9405 110.867 32.6807 109.658 32.1625L109.337 32.9108C110.651 33.4738 112.044 33.7546 113.514 33.7546V32.9405ZM109.661 32.1637C108.47 31.6429 107.432 30.9376 106.542 30.0478L105.966 30.6234C106.93 31.5871 108.054 32.3492 109.334 32.9095L109.661 32.1637ZM106.542 30.0478C105.652 29.158 104.947 28.1194 104.426 26.9289L103.68 27.2551C104.24 28.5359 105.003 29.6597 105.966 30.6234L106.542 30.0478ZM104.426 26.9289C103.909 25.7472 103.649 24.4773 103.649 23.1147H102.835C102.835 24.5839 103.116 25.9655 103.68 27.2551L104.426 26.9289ZM106.156 23.1147C106.156 24.0877 106.318 25.0345 106.642 25.9532L107.41 25.6823C107.117 24.8504 106.97 23.9952 106.97 23.1147H106.156ZM106.648 25.9669C106.999 26.8596 107.487 27.66 108.112 28.3657L108.721 27.8263C108.161 27.1933 107.723 26.4749 107.405 25.6685L106.648 25.9669ZM108.117 28.3721C108.771 29.0801 109.546 29.6508 110.44 30.084L110.795 29.3515C109.99 28.961 109.298 28.4505 108.716 27.8199L108.117 28.3721ZM110.453 30.0902C111.385 30.5014 112.407 30.704 113.514 30.704V29.89C112.509 29.89 111.6 29.7064 110.782 29.3454L110.453 30.0902ZM113.514 30.704C114.619 30.704 115.63 30.5015 116.539 30.0883L116.203 29.3472C115.412 29.7064 114.518 29.89 113.514 29.89V30.704ZM116.544 30.0861C117.465 29.6526 118.245 29.0798 118.877 28.3657L118.267 27.8263C117.715 28.4508 117.027 28.9592 116.198 29.3495L116.544 30.0861ZM118.877 28.3657C119.503 27.6576 119.98 26.8538 120.306 25.9568L119.541 25.6786C119.249 26.4807 118.825 27.1957 118.267 27.8263L118.877 28.3657ZM120.304 25.9631C120.656 25.042 120.833 24.0917 120.833 23.1147H120.018C120.018 23.9912 119.86 24.843 119.543 25.6724L120.304 25.9631ZM120.833 23.1147C120.833 22.1377 120.656 21.1875 120.304 20.2663L119.543 20.5571C119.86 21.3865 120.018 22.2382 120.018 23.1147H120.833ZM120.307 20.2762C119.982 19.3535 119.505 18.5352 118.877 17.8252L118.267 18.3645C118.823 18.9931 119.248 19.7194 119.54 20.5472L120.307 20.2762ZM118.877 17.8252C118.243 17.1088 117.46 16.5474 116.535 16.1393L116.207 16.8841C117.032 17.2482 117.717 17.7423 118.267 18.3645L118.877 17.8252ZM116.549 16.1454C115.637 15.7037 114.623 15.4868 113.514 15.4868V16.3009C114.515 16.3009 115.405 16.4959 116.193 16.8779L116.549 16.1454ZM113.514 15.4868C112.404 15.4868 111.378 15.7037 110.444 16.1434L110.791 16.88C111.607 16.4958 112.512 16.3009 113.514 16.3009V15.4868ZM110.449 16.1411C109.551 16.5492 108.773 17.1086 108.117 17.8188L108.716 18.3709C109.296 17.7425 109.985 17.2465 110.786 16.8822L110.449 16.1411ZM108.112 17.8252C107.486 18.5328 106.997 19.3477 106.646 20.2663L107.406 20.5571C107.725 19.7252 108.163 18.9955 108.721 18.3645L108.112 17.8252ZM106.642 20.2762C106.318 21.195 106.156 22.1418 106.156 23.1147H106.97C106.97 22.2342 107.117 21.379 107.41 20.5472L106.642 20.2762Z" fill="white"/>
<path d="M25.2361 20.5404L0 6.0401V35.1801L25.2361 20.5404Z" fill="#6CD14E"/>
</svg>
