<svg width="50" height="34" viewBox="0 0 50 34" fill="none" xmlns="http://www.w3.org/2000/svg">
<rect x="1.02637" y="0.5" width="48.4737" height="33" rx="5.5" fill="white" stroke="#D9D9D9"/>
<path fill-rule="evenodd" clip-rule="evenodd" d="M25.5423 24.623C23.8579 26.0797 21.6731 26.9591 19.2856 26.9591C13.9585 26.9591 9.64001 22.5808 9.64001 17.1799C9.64001 11.7789 13.9585 7.40063 19.2856 7.40063C21.6731 7.40063 23.8579 8.28003 25.5423 9.73676C27.2266 8.28003 29.4114 7.40063 31.7989 7.40063C37.126 7.40063 41.4445 11.7789 41.4445 17.1799C41.4445 22.5808 37.126 26.9591 31.7989 26.9591C29.4114 26.9591 27.2266 26.0797 25.5423 24.623Z" fill="#ED0006"/>
<path fill-rule="evenodd" clip-rule="evenodd" d="M25.5422 24.623C27.6162 22.8293 28.9312 20.1603 28.9312 17.1799C28.9312 14.1995 27.6162 11.5305 25.5422 9.73676C27.2266 8.28003 29.4114 7.40063 31.7989 7.40063C37.126 7.40063 41.4445 11.7789 41.4445 17.1799C41.4445 22.5808 37.126 26.9591 31.7989 26.9591C29.4114 26.9591 27.2266 26.0797 25.5422 24.623Z" fill="#F9A000"/>
<path fill-rule="evenodd" clip-rule="evenodd" d="M25.5423 24.623C27.6162 22.8293 28.9313 20.1603 28.9313 17.1799C28.9313 14.1995 27.6162 11.5305 25.5423 9.73682C23.4684 11.5305 22.1533 14.1995 22.1533 17.1799C22.1533 20.1603 23.4684 22.8293 25.5423 24.623Z" fill="#FF5E00"/>
</svg>
