<svg width="50" height="34" viewBox="0 0 50 34" fill="none" xmlns="http://www.w3.org/2000/svg">
<rect x="0.763184" y="0.5" width="48.4737" height="33" rx="5.5" fill="white" stroke="#D9D9D9"/>
<path fill-rule="evenodd" clip-rule="evenodd" d="M15.2824 23.0325H12.2853L10.0378 14.4392C9.93109 14.0439 9.70459 13.6944 9.37141 13.5297C8.53992 13.1158 7.62368 12.7864 6.62415 12.6203V12.2894H11.4523C12.1187 12.2894 12.6184 12.7864 12.7017 13.3636L13.8679 19.5622L16.8635 12.2894H19.7774L15.2824 23.0325ZM21.4433 23.0325H18.6127L20.9435 12.2894H23.7741L21.4433 23.0325ZM27.4361 15.2656C27.5194 14.687 28.0192 14.3561 28.6022 14.3561C29.5185 14.2731 30.5166 14.4392 31.3495 14.8517L31.8493 12.5386C31.0163 12.2078 30.1001 12.0417 29.2686 12.0417C26.5213 12.0417 24.5223 13.5297 24.5223 15.595C24.5223 17.1661 25.9383 17.9911 26.9378 18.4881C28.0192 18.9836 28.4357 19.3145 28.3524 19.81C28.3524 20.5533 27.5194 20.8842 26.6879 20.8842C25.6884 20.8842 24.6889 20.6364 23.7741 20.2225L23.2743 22.537C24.2738 22.9494 25.3552 23.1156 26.3548 23.1156C29.4352 23.1972 31.3495 21.7106 31.3495 19.4792C31.3495 16.6692 27.4361 16.5045 27.4361 15.2656ZM41.2557 23.0325L39.0082 12.2894H36.5941C36.0944 12.2894 35.5946 12.6203 35.428 13.1158L31.2662 23.0325H34.1801L34.7617 21.4628H38.3419L38.6751 23.0325H41.2557ZM37.0106 15.1825L37.8421 19.2314H35.5113L37.0106 15.1825Z" fill="#172B85"/>
</svg>
