<svg width="229" height="696" viewBox="0 0 229 696" fill="none" xmlns="http://www.w3.org/2000/svg">
<g opacity="0.8">
<path d="M57.0457 33.7776L0 1L1.15172e-05 66.8705L57.0457 33.7776Z" stroke="#35D32F" stroke-opacity="0.2"/>
<path d="M114.467 231.555L57.421 198.778L57.421 264.648L114.467 231.555Z" fill="#35D32F" fill-opacity="0.15" stroke="#35D32F" stroke-opacity="0.2"/>
<path d="M114.218 99.6602L57.1724 66.8826L57.1724 132.753L114.218 99.6602Z" stroke="#35D32F" stroke-opacity="0.2"/>
<path d="M57.3424 198.734L0.296692 165.957L0.296703 231.827L57.3424 198.734Z" stroke="#35D32F" stroke-opacity="0.2"/>
<path d="M114.218 165.71L57.1724 132.932L57.1724 198.802L114.218 165.71Z" stroke="#35D32F" stroke-opacity="0.2"/>
<path d="M57.3424 330.832L0.296692 298.055L0.296703 363.925L57.3424 330.832Z" stroke="#35D32F" stroke-opacity="0.2"/>
<path d="M171.094 264.783L114.048 232.006L114.048 297.876L171.094 264.783Z" stroke="#35D32F" stroke-opacity="0.2"/>
<path d="M227.97 231.759L170.924 198.981L170.924 264.852L227.97 231.759Z" stroke="#35D32F" stroke-opacity="0.2"/>
<path d="M114.218 363.857L57.1724 331.079L57.1724 396.95L114.218 363.857Z" stroke="#35D32F" stroke-opacity="0.2"/>
<path d="M114.218 429.906L57.1724 397.129L57.1724 462.999L114.218 429.906Z" stroke="#35D32F" stroke-opacity="0.2"/>
<path d="M227.467 429.778L170.421 397L170.421 462.87L227.467 429.778Z" fill="#35D32F" fill-opacity="0.1" stroke="#35D32F" stroke-opacity="0.2"/>
<path d="M171.094 462.931L114.048 430.153L114.048 496.024L171.094 462.931Z" stroke="#35D32F" stroke-opacity="0.2"/>
<path d="M57.3424 595.029L0.296692 562.252L0.296703 628.122L57.3424 595.029Z" fill="#35D32F" fill-opacity="0.05" stroke="#35D32F" stroke-opacity="0.2"/>
<path d="M114.218 562.005L57.1724 529.227L57.1724 595.098L114.218 562.005Z" stroke="#35D32F" stroke-opacity="0.2"/>
<path d="M57.3424 661.079L0.296692 628.301L0.296703 694.171L57.3424 661.079Z" stroke="#35D32F" stroke-opacity="0.2"/>
<path d="M171.375 595.14L114.329 562.363L114.329 628.233L171.375 595.14Z" stroke="#35D32F" stroke-opacity="0.2"/>
</g>
</svg>
